0
SECTION
2
HEADER
9
$INSUNITS
70
4
9
$ACADVER
1
AC1014
9
$HANDSEED
5
FFFF
0
ENDSEC
0
SECTION
2
TABLES
0
TABLE
2
VPORT
5
8
100
AcDbSymbolTable
0
ENDTAB
0
TABLE
2
LTYPE
5
5
100
AcDbSymbolTable
70
2
0
LTYPE
5
14
100
AcDbSymbolTableRecord
100
AcDbLinetypeTableRecord
2
BYBLOCK
70
0
0
LTYPE
5
15
100
AcDbSymbolTableRecord
100
AcDbLinetypeTableRecord
2
BYLAYER
70
0
0
ENDTAB
0
TABLE
2
LAYER
5
2
100
AcDbSymbolTable
70
3
0
LAYER
5
50
100
AcDbSymbolTableRecord
100
AcDbLayerTableRecord
2
0
70
0
6
CONTINUOUS
0
LAYER
5
51
100
AcDbSymbolTableRecord
100
AcDbLayerTableRecord
2
CUTOUTS
70
0
62
1
6
CONTINUOUS
0
LAYER
5
52
100
AcDbSymbolTableRecord
100
AcDbLayerTableRecord
2
PERIMETER
70
0
62
5
6
CONTINUOUS
0
ENDTAB
0
TABLE
2
STYLE
5
3
100
AcDbSymbolTable
70
1
0
STYLE
5
11
100
AcDbSymbolTableRecord
100
AcDbTextStyleTableRecord
2
STANDARD
70
0
0
ENDTAB
0
TABLE
2
VIEW
5
6
100
AcDbSymbolTable
0
ENDTAB
0
TABLE
2
UCS
5
7
100
AcDbSymbolTable
0
ENDTAB
0
TABLE
2
APPID
5
9
100
AcDbSymbolTable
70
1
0
APPID
5
12
100
AcDbSymbolTableRecord
100
AcDbRegAppTableRecord
2
ACAD
70
0
0
ENDTAB
0
TABLE
2
DIMSTYLE
5
A
100
AcDbSymbolTable
0
ENDTAB
0
TABLE
2
BLOCK_RECORD
5
1
100
AcDbSymbolTable
70
2
0
BLOCK_RECORD
5
1F
100
AcDbSymbolTableRecord
100
AcDbBlockTableRecord
2
*MODEL_SPACE
0
BLOCK_RECORD
5
1B
100
AcDbSymbolTableRecord
100
AcDbBlockTableRecord
2
*PAPER_SPACE
0
ENDTAB
0
ENDSEC
0
SECTION
2
BLOCKS
0
BLOCK
5
20
100
AcDbEntity
100
AcDbBlockBegin
2
*MODEL_SPACE
0
ENDBLK
5
21
100
AcDbEntity
100
AcDbBlockEnd
0
BLOCK
5
1C
100
AcDbEntity
100
AcDbBlockBegin
2
*PAPER_SPACE
0
ENDBLK
5
1D
100
AcDbEntity
100
AcDbBlockEnd
0
ENDSEC
0
SECTION
2
ENTITIES
0
LWPOLYLINE
5
100
100
AcDbEntity
8
PERIMETER
100
AcDbPolyline
90
34
70
1
43
0.0
10
-4.9500000000000011
20
4.9500000000000011
10
-4.9500000000000011
20
270.05000000000001
10
-29.933060224751561
20
270.05000000000001
10
-29.933060224751564
20
235.12580563390557
10
-80.049999999999983
20
253.36687994460792
10
-80.049999999999983
20
247.58364605543431
10
-29.947145862957136
20
229.34769849776941
10
-31.623044565252911
20
224.74320465591845
10
-80.049999999999983
20
242.36917497030231
10
-80.049999999999983
20
217.58364605543431
10
-29.947145862957136
20
199.34769849776941
10
-31.623044565252911
20
194.74320465591845
10
-80.049999999999983
20
212.36917497030231
10
-80.049999999999983
20
187.58364605543431
10
-29.947145862957136
20
169.34769849776941
10
-31.623044565252911
20
164.74320465591845
10
-80.049999999999983
20
182.36917497030231
10
-80.049999999999983
20
157.58364605543429
10
-29.947145862957125
20
139.34769849776939
10
-31.623044565252904
20
134.74320465591848
10
-80.049999999999983
20
152.36917497030231
10
-80.049999999999983
20
127.58364605543429
10
-29.947145862957125
20
109.34769849776939
10
-31.623044565252904
20
104.74320465591846
10
-80.049999999999983
20
122.36917497030232
10
-80.049999999999983
20
97.583646055434286
10
-29.947145862957136
20
79.347698497769386
10
-31.623044565252904
20
74.743204655918461
10
-80.049999999999983
20
92.369174970302311
10
-80.050000000000011
20
67.583646055434286
10
-29.947145862957125
20
49.347698497769379
10
-31.623044565252904
20
44.743204655918461
10
-80.049999999999983
20
62.369174970302304
10
-80.049999999999983
20
4.9500000000000011
0
ENDSEC
0
SECTION
2
OBJECTS
0
DICTIONARY
5
C
100
AcDbDictionary
3
ACAD_GROUP
350
D
3
ACAD_MLINESTYLE
350
17
0
DICTIONARY
5
D
100
AcDbDictionary
0
DICTIONARY
5
1A
330
C
100
AcDbDictionary
0
DICTIONARY
5
17
100
AcDbDictionary
0
ENDSEC
0
EOF
