999
dxfrw 0.6.3
  0
SECTION
  2
HEADER
  9
$ACADVER
  1
AC1021
  9
$DWGCODEPAGE
  3
ANSI_1252
  9
$INSBASE
 10
0
 20
0
 30
0
  9
$EXTMIN
 10
0
 20
-3.070670847083323
 30
0
  9
$EXTMAX
 10
366.0239649723321
 20
353.125
 30
0
  9
$LIMMIN
 10
0
 20
0
  9
$LIMMAX
 10
420
 20
297
  9
$ORTHOMODE
 70
    0
  9
$REGENMODE
 70
    1
  9
$FILLMODE
 70
    0
  9
$QTEXTMODE
 70
    0
  9
$MIRRTEXT
 70
    0
  9
$LTSCALE
 40
1
  9
$ATTMODE
 70
    0
  9
$TEXTSIZE
 40
2.5
  9
$TRACEWID
 40
15.68
  9
$TEXTSTYLE
  7
STANDARD
  9
$CLAYER
  8
0
  9
$CELTYPE
  6
BYLAYER
  9
$CECOLOR
 62
  256
  9
$CELTSCALE
 40
1
  9
$DISPSILH
 70
    0
  9
$DIMSCALE
 40
1
  9
$DIMASZ
 40
2.5
  9
$DIMEXO
 40
0.625
  9
$DIMDLI
 40
3.75
  9
$DIMRND
 40
0
  9
$DIMDLE
 40
0
  9
$DIMEXE
 40
1.25
  9
$DIMTP
 40
0
  9
$DIMTM
 40
0
  9
$DIMTXT
 40
2.5
  9
$DIMCEN
 40
2.5
  9
$DIMTSZ
 40
0
  9
$DIMTOL
 70
    0
  9
$DIMLIM
 70
    0
  9
$DIMTIH
 70
    0
  9
$DIMTOH
 70
    0
  9
$DIMSE1
 70
    0
  9
$DIMSE2
 70
    0
  9
$DIMTAD
 70
    1
  9
$DIMZIN
 70
    8
  9
$DIMBLK
  1

  9
$DIMASO
 70
    1
  9
$DIMSHO
 70
    1
  9
$DIMPOST
  1

  9
$DIMAPOST
  1

  9
$DIMALT
 70
    0
  9
$DIMALTD
 70
    3
  9
$DIMALTF
 40
0.03937
  9
$DIMLFAC
 40
1
  9
$DIMTOFL
 70
    1
  9
$DIMTVP
 40
0
  9
$DIMTIX
 70
    0
  9
$DIMSOXD
 70
    0
  9
$DIMSAH
 70
    0
  9
$DIMBLK1
  1

  9
$DIMBLK2
  1

  9
$DIMSTYLE
  2
Standard
  9
$DIMCLRD
 70
    0
  9
$DIMCLRE
 70
    0
  9
$DIMCLRT
 70
    0
  9
$DIMTFAC
 40
1
  9
$DIMGAP
 40
0.625
  9
$DIMJUST
 70
    0
  9
$DIMSD1
 70
    0
  9
$DIMSD2
 70
    0
  9
$DIMTOLJ
 70
    0
  9
$DIMTZIN
 70
    8
  9
$DIMALTZ
 70
    0
  9
$DIMALTTZ
 70
    0
  9
$DIMUPT
 70
    0
  9
$DIMDEC
 70
    2
  9
$DIMTDEC
 70
    2
  9
$DIMALTU
 70
    2
  9
$DIMALTTD
 70
    3
  9
$DIMTXSTY
  7
STANDARD
  9
$DIMAUNIT
 70
    0
  9
$DIMADEC
 70
    0
  9
$DIMALTRND
 40
0
  9
$DIMAZIN
 70
    0
  9
$DIMDSEP
 70
   44
  9
$DIMATFIT
 70
    3
  9
$DIMFRAC
 70
    0
  9
$DIMLDRBLK
  1
STANDARD
  9
$DIMLUNIT
 70
    2
  9
$DIMLWD
 70
   -2
  9
$DIMLWE
 70
   -2
  9
$DIMTMOVE
 70
    0
  9
$DIMFXL
 40
1
  9
$DIMFXLON
 70
    0
  9
$DIMJOGANG
 40
0.7854
  9
$DIMTFILL
 70
    0
  9
$DIMTFILLCLR
 70
    0
  9
$DIMARCSYM
 70
    0
  9
$DIMLTYPE
  6

  9
$DIMLTEX1
  6

  9
$DIMLTEX2
  6

  9
$LUNITS
 70
    2
  9
$LUPREC
 70
    4
  9
$SKETCHINC
 40
1
  9
$FILLETRAD
 40
0
  9
$AUNITS
 70
    0
  9
$AUPREC
 70
    2
  9
$MENU
  1
.
  9
$ELEVATION
 40
0
  9
$PELEVATION
 40
0
  9
$THICKNESS
 40
0
  9
$LIMCHECK
 70
    0
  9
$CHAMFERA
 40
0
  9
$CHAMFERB
 40
0
  9
$CHAMFERC
 40
0
  9
$CHAMFERD
 40
0
  9
$SKPOLY
 70
    0
  9
$USRTIMER
 70
    1
  9
$ANGBASE
 50
0
  9
$ANGDIR
 70
    0
  9
$PDMODE
 70
   34
  9
$PDSIZE
 40
0
  9
$PLINEWID
 40
0
  9
$SPLFRAME
 70
    1
  9
$SPLINETYPE
 70
    2
  9
$SPLINESEGS
 70
    8
  9
$HANDSEED
  5
20000
  9
$SURFTAB1
 70
    6
  9
$SURFTAB2
 70
    6
  9
$SURFTYPE
 70
    6
  9
$SURFU
 70
    6
  9
$SURFV
 70
    6
  9
$UCSBASE
  2

  9
$UCSNAME
  2

  9
$UCSORG
 10
0
 20
0
 30
0
  9
$UCSXDIR
 10
1
 20
0
 30
0
  9
$UCSYDIR
 10
0
 20
1
 30
0
  9
$UCSORTHOREF
  2

  9
$UCSORTHOVIEW
 70
    0
  9
$UCSORGTOP
 10
0
 20
0
 30
0
  9
$UCSORGBOTTOM
 10
0
 20
0
 30
0
  9
$UCSORGLEFT
 10
0
 20
0
 30
0
  9
$UCSORGRIGHT
 10
0
 20
0
 30
0
  9
$UCSORGFRONT
 10
0
 20
0
 30
0
  9
$UCSORGBACK
 10
0
 20
0
 30
0
  9
$PUCSBASE
  2

  9
$PUCSNAME
  2

  9
$PUCSORG
 10
0
 20
0
 30
0
  9
$PUCSXDIR
 10
1
 20
0
 30
0
  9
$PUCSYDIR
 10
0
 20
1
 30
0
  9
$PUCSORTHOREF
  2

  9
$PUCSORTHOVIEW
 70
    0
  9
$PUCSORGTOP
 10
0
 20
0
 30
0
  9
$PUCSORGBOTTOM
 10
0
 20
0
 30
0
  9
$PUCSORGLEFT
 10
0
 20
0
 30
0
  9
$PUCSORGRIGHT
 10
0
 20
0
 30
0
  9
$PUCSORGFRONT
 10
0
 20
0
 30
0
  9
$PUCSORGBACK
 10
0
 20
0
 30
0
  9
$USERI1
 70
    0
  9
$USERI2
 70
    0
  9
$USERI3
 70
    0
  9
$USERI4
 70
    0
  9
$USERI5
 70
    0
  9
$USERR1
 40
0
  9
$USERR2
 40
0
  9
$USERR3
 40
0
  9
$USERR4
 40
0
  9
$USERR5
 40
0
  9
$WORLDVIEW
 70
    1
  9
$SHADEDGE
 70
    3
  9
$SHADEDIF
 70
   70
  9
$TILEMODE
 70
    1
  9
$MAXACTVP
 70
   64
  9
$PINSBASE
 10
0
 20
0
 30
0
  9
$PLIMCHECK
 70
    0
  9
$PEXTMIN
 10
0
 20
0
 30
0
  9
$PEXTMAX
 10
0
 20
0
 30
0
  9
$SNAPSTYLE
 70
    0
  9
$PLIMMIN
 10
0
 20
0
  9
$PLIMMAX
 10
210
 20
297
  9
$UNITMODE
 70
    0
  9
$VISRETAIN
 70
    1
  9
$PLINEGEN
 70
    0
  9
$PSLTSCALE
 70
    1
  9
$TREEDEPTH
 70
 3020
  9
$CMLSTYLE
  2
Standard
  9
$CMLJUST
 70
    0
  9
$CMLSCALE
 40
20
  9
$PROXYGRAPHICS
 70
    1
  9
$MEASUREMENT
 70
    1
  9
$CELWEIGHT
370
   -1
  9
$ENDCAPS
280
    0
  9
$JOINSTYLE
280
    0
  9
$LWDISPLAY
290
    0
  9
$INSUNITS
 70
    4
  9
$HYPERLINKBASE
  1

  9
$STYLESHEET
  1

  9
$XEDIT
290
    1
  9
$CEPSNTYPE
380
    0
  9
$PSTYLEMODE
290
    1
  9
$EXTNAMES
290
    1
  9
$PSVPSCALE
 40
1
  9
$OLESTARTUP
290
    0
  9
$SORTENTS
280
  127
  9
$INDEXCTL
280
    0
  9
$HIDETEXT
280
    1
  9
$XCLIPFRAME
290
    0
  9
$HALOGAP
280
    0
  9
$OBSCOLOR
 70
  257
  9
$OBSLTYPE
280
    0
  9
$INTERSECTIONDISPLAY
280
    0
  9
$INTERSECTIONCOLOR
 70
  257
  9
$DIMASSOC
280
    1
  9
$PROJECTNAME
  1

  9
$CAMERADISPLAY
290
    0
  9
$LENSLENGTH
 40
50
  9
$CAMERAHEIGHT
 40
0
  9
$STEPSPERSEC
 40
2
  9
$STEPSIZE
 40
50
  9
$3DDWFPREC
 40
2
  9
$PSOLWIDTH
 40
5
  9
$PSOLHEIGHT
 40
80
  9
$LOFTANG1
 40
1.570796326794897
  9
$LOFTANG2
 40
1.570796326794897
  9
$LOFTMAG1
 40
0
  9
$LOFTMAG2
 40
0
  9
$LOFTPARAM
 70
    7
  9
$LOFTNORMALS
280
    1
  9
$LATITUDE
 40
1
  9
$LONGITUDE
 40
1
  9
$NORTHDIRECTION
 40
0
  9
$TIMEZONE
 70
-8000
  9
$LIGHTGLYPHDISPLAY
280
    1
  9
$TILEMODELIGHTSYNCH
280
    1
  9
$SOLIDHIST
280
    1
  9
$SHOWHIST
280
    1
  9
$DWFFRAME
280
    2
  9
$DGNFRAME
280
    0
  9
$REALWORLDSCALE
290
    1
  9
$INTERFERECOLOR
 62
    1
  9
$CSHADOW
280
    0
  9
$SHADOWPLANELOCATION
 40
0
  0
ENDSEC
  0
SECTION
  2
CLASSES
  0
ENDSEC
  0
SECTION
  2
TABLES
  0
TABLE
  2
VPORT
  5
8
330
0
100
AcDbSymbolTable
 70
    1
  0
VPORT
  5
31
330
2
100
AcDbSymbolTableRecord
100
AcDbViewportTableRecord
  2
*ACTIVE
 70
    0
 10
0
 20
0
 11
1
 21
1
 12
101.1218126378442
 22
181.6752092435825
 13
0
 23
0
 14
10
 24
10
 15
10
 25
10
 16
0
 26
0
 36
1
 17
0
 27
0
 37
0
 40
175.1681103534254
 41
1.900939368061486
 42
50
 43
0
 44
0
 50
0
 51
0
 71
    0
 72
  100
 73
    1
 74
    3
 75
    0
 76
    1
 77
    0
 78
    0
281
    0
 65
    1
110
0
120
0
130
0
111
1
121
0
131
0
112
0
122
1
132
0
 79
    0
146
0
348
10020
 60
    7
 61
    5
292
1
282
    1
141
0
142
0
 63
  250
421
3358443
  0
ENDTAB
  0
TABLE
  2
LTYPE
  5
5
330
0
100
AcDbSymbolTable
 70
    4
  0
LTYPE
  5
14
330
5
100
AcDbSymbolTableRecord
100
AcDbLinetypeTableRecord
  2
ByBlock
 70
    0
  3

 72
   65
 73
    0
 40
0
  0
LTYPE
  5
15
330
5
100
AcDbSymbolTableRecord
100
AcDbLinetypeTableRecord
  2
ByLayer
 70
    0
  3

 72
   65
 73
    0
 40
0
  0
LTYPE
  5
16
330
5
100
AcDbSymbolTableRecord
100
AcDbLinetypeTableRecord
  2
Continuous
 70
    0
  3
Solid line
 72
   65
 73
    0
 40
0
  0
LTYPE
  5
32
330
5
100
AcDbSymbolTableRecord
100
AcDbLinetypeTableRecord
  2
DOT
 70
    0
  3
Dot . . . . . . . . . . . . . . . . . . . . . .
 72
   65
 73
    2
 40
6.35
 49
0
 74
    0
 49
-6.35
 74
    0
  0
LTYPE
  5
33
330
5
100
AcDbSymbolTableRecord
100
AcDbLinetypeTableRecord
  2
DOTTINY
 70
    0
  3
Dot (.15x) .....................................
 72
   65
 73
    2
 40
0.9525
 49
0
 74
    0
 49
-0.9525
 74
    0
  0
LTYPE
  5
34
330
5
100
AcDbSymbolTableRecord
100
AcDbLinetypeTableRecord
  2
DOT2
 70
    0
  3
Dot (.5x) .....................................
 72
   65
 73
    2
 40
3.175
 49
0
 74
    0
 49
-3.175
 74
    0
  0
LTYPE
  5
35
330
5
100
AcDbSymbolTableRecord
100
AcDbLinetypeTableRecord
  2
DOTX2
 70
    0
  3
Dot (2x) .  .  .  .  .  .  .  .  .  .  .  .  .
 72
   65
 73
    2
 40
12.7
 49
0
 74
    0
 49
-12.7
 74
    0
  0
LTYPE
  5
36
330
5
100
AcDbSymbolTableRecord
100
AcDbLinetypeTableRecord
  2
DASHED
 70
    0
  3
Dashed _ _ _ _ _ _ _ _ _ _ _ _ _ _ _ _ _
 72
   65
 73
    2
 40
19.05
 49
12.7
 74
    0
 49
-6.35
 74
    0
  0
LTYPE
  5
37
330
5
100
AcDbSymbolTableRecord
100
AcDbLinetypeTableRecord
  2
DASHEDTINY
 70
    0
  3
Dashed (.15x) _ _ _ _ _ _ _ _ _ _ _ _ _ _ _ _ _
 72
   65
 73
    2
 40
2.8575
 49
1.905
 74
    0
 49
-0.9525
 74
    0
  0
LTYPE
  5
38
330
5
100
AcDbSymbolTableRecord
100
AcDbLinetypeTableRecord
  2
DASHED2
 70
    0
  3
Dashed (.5x) _ _ _ _ _ _ _ _ _ _ _ _ _ _ _ _ _
 72
   65
 73
    2
 40
9.524999999999999
 49
6.35
 74
    0
 49
-3.175
 74
    0
  0
LTYPE
  5
39
330
5
100
AcDbSymbolTableRecord
100
AcDbLinetypeTableRecord
  2
DASHEDX2
 70
    0
  3
Dashed (2x) ____  ____  ____  ____  ____  ___
 72
   65
 73
    2
 40
38.09999999999999
 49
25.4
 74
    0
 49
-12.7
 74
    0
  0
LTYPE
  5
3A
330
5
100
AcDbSymbolTableRecord
100
AcDbLinetypeTableRecord
  2
DASHDOT
 70
    0
  3
Dash dot __ . __ . __ . __ . __ . __ . __ . __
 72
   65
 73
    4
 40
25.4
 49
12.7
 74
    0
 49
-6.35
 74
    0
 49
0
 74
    0
 49
-6.35
 74
    0
  0
LTYPE
  5
3B
330
5
100
AcDbSymbolTableRecord
100
AcDbLinetypeTableRecord
  2
DASHDOTTINY
 70
    0
  3
Dash dot (.15x) _._._._._._._._._._._._._._._.
 72
   65
 73
    4
 40
3.81
 49
1.905
 74
    0
 49
-0.9525
 74
    0
 49
0
 74
    0
 49
-0.9525
 74
    0
  0
LTYPE
  5
3C
330
5
100
AcDbSymbolTableRecord
100
AcDbLinetypeTableRecord
  2
DASHDOT2
 70
    0
  3
Dash dot (.5x) _._._._._._._._._._._._._._._.
 72
   65
 73
    4
 40
12.7
 49
6.35
 74
    0
 49
-3.175
 74
    0
 49
0
 74
    0
 49
-3.175
 74
    0
  0
LTYPE
  5
3D
330
5
100
AcDbSymbolTableRecord
100
AcDbLinetypeTableRecord
  2
DASHDOTX2
 70
    0
  3
Dash dot (2x) ____  .  ____  .  ____  .  ___
 72
   65
 73
    4
 40
50.8
 49
25.4
 74
    0
 49
-12.7
 74
    0
 49
0
 74
    0
 49
-12.7
 74
    0
  0
LTYPE
  5
3E
330
5
100
AcDbSymbolTableRecord
100
AcDbLinetypeTableRecord
  2
DIVIDE
 70
    0
  3
Divide ____ . . ____ . . ____ . . ____ . . ____
 72
   65
 73
    6
 40
31.75
 49
12.7
 74
    0
 49
-6.35
 74
    0
 49
0
 74
    0
 49
-6.35
 74
    0
 49
0
 74
    0
 49
-6.35
 74
    0
  0
LTYPE
  5
3F
330
5
100
AcDbSymbolTableRecord
100
AcDbLinetypeTableRecord
  2
DIVIDETINY
 70
    0
  3
Divide (.15x) __..__..__..__..__..__..__..__.._
 72
   65
 73
    6
 40
4.7625
 49
1.905
 74
    0
 49
-0.9525
 74
    0
 49
0
 74
    0
 49
-0.9525
 74
    0
 49
0
 74
    0
 49
-0.9525
 74
    0
  0
LTYPE
  5
40
330
5
100
AcDbSymbolTableRecord
100
AcDbLinetypeTableRecord
  2
DIVIDE2
 70
    0
  3
Divide (.5x) __..__..__..__..__..__..__..__.._
 72
   65
 73
    6
 40
15.875
 49
6.35
 74
    0
 49
-3.175
 74
    0
 49
0
 74
    0
 49
-3.175
 74
    0
 49
0
 74
    0
 49
-3.175
 74
    0
  0
LTYPE
  5
41
330
5
100
AcDbSymbolTableRecord
100
AcDbLinetypeTableRecord
  2
DIVIDEX2
 70
    0
  3
Divide (2x) ________  .  .  ________  .  .  _
 72
   65
 73
    6
 40
63.5
 49
25.4
 74
    0
 49
-12.7
 74
    0
 49
0
 74
    0
 49
-12.7
 74
    0
 49
0
 74
    0
 49
-12.7
 74
    0
  0
LTYPE
  5
42
330
5
100
AcDbSymbolTableRecord
100
AcDbLinetypeTableRecord
  2
BORDER
 70
    0
  3
Border __ __ . __ __ . __ __ . __ __ . __ __ .
 72
   65
 73
    6
 40
44.45
 49
12.7
 74
    0
 49
-6.35
 74
    0
 49
12.7
 74
    0
 49
-6.35
 74
    0
 49
0
 74
    0
 49
-6.35
 74
    0
  0
LTYPE
  5
43
330
5
100
AcDbSymbolTableRecord
100
AcDbLinetypeTableRecord
  2
BORDERTINY
 70
    0
  3
Border (.15x) __.__.__.__.__.__.__.__.__.__.__.
 72
   65
 73
    6
 40
6.6675
 49
1.905
 74
    0
 49
-0.9525
 74
    0
 49
1.905
 74
    0
 49
-0.9525
 74
    0
 49
0
 74
    0
 49
-0.9525
 74
    0
  0
LTYPE
  5
44
330
5
100
AcDbSymbolTableRecord
100
AcDbLinetypeTableRecord
  2
BORDER2
 70
    0
  3
Border (.5x) __.__.__.__.__.__.__.__.__.__.__.
 72
   65
 73
    6
 40
22.225
 49
6.35
 74
    0
 49
-3.175
 74
    0
 49
6.35
 74
    0
 49
-3.175
 74
    0
 49
0
 74
    0
 49
-3.175
 74
    0
  0
LTYPE
  5
45
330
5
100
AcDbSymbolTableRecord
100
AcDbLinetypeTableRecord
  2
BORDERX2
 70
    0
  3
Border (2x) ____  ____  .  ____  ____  .  ___
 72
   65
 73
    6
 40
88.89999999999999
 49
25.4
 74
    0
 49
-12.7
 74
    0
 49
25.4
 74
    0
 49
-12.7
 74
    0
 49
0
 74
    0
 49
-12.7
 74
    0
  0
LTYPE
  5
46
330
5
100
AcDbSymbolTableRecord
100
AcDbLinetypeTableRecord
  2
CENTER
 70
    0
  3
Center ____ _ ____ _ ____ _ ____ _ ____ _ ____
 72
   65
 73
    4
 40
50.8
 49
31.75
 74
    0
 49
-6.35
 74
    0
 49
6.35
 74
    0
 49
-6.35
 74
    0
  0
LTYPE
  5
47
330
5
100
AcDbSymbolTableRecord
100
AcDbLinetypeTableRecord
  2
CENTERTINY
 70
    0
  3
Center (.15x) ___ _ ___ _ ___ _ ___ _ ___ _ ___
 72
   65
 73
    4
 40
7.62
 49
4.7625
 74
    0
 49
-0.9525
 74
    0
 49
0.9525
 74
    0
 49
-0.9525
 74
    0
  0
LTYPE
  5
48
330
5
100
AcDbSymbolTableRecord
100
AcDbLinetypeTableRecord
  2
CENTER2
 70
    0
  3
Center (.5x) ___ _ ___ _ ___ _ ___ _ ___ _ ___
 72
   65
 73
    4
 40
28.575
 49
19.05
 74
    0
 49
-3.175
 74
    0
 49
3.175
 74
    0
 49
-3.175
 74
    0
  0
LTYPE
  5
49
330
5
100
AcDbSymbolTableRecord
100
AcDbLinetypeTableRecord
  2
CENTERX2
 70
    0
  3
Center (2x) ________  __  ________  __  _____
 72
   65
 73
    4
 40
101.6
 49
63.5
 74
    0
 49
-12.7
 74
    0
 49
12.7
 74
    0
 49
-12.7
 74
    0
  0
ENDTAB
  0
TABLE
  2
LAYER
  5
2
330
0
100
AcDbSymbolTable
 70
    1
  0
LAYER
  5
10
330
2
100
AcDbSymbolTableRecord
100
AcDbLayerTableRecord
  2
0
 70
    0
 62
    7
  6
CONTINUOUS
370
   -3
390
F
  0
ENDTAB
  0
TABLE
  2
STYLE
  5
3
330
0
100
AcDbSymbolTable
 70
    3
  0
STYLE
  5
4A
330
2
100
AcDbSymbolTableRecord
100
AcDbTextStyleTableRecord
  2
Standard
 70
    0
 40
0
 41
1
 50
0
 71
    0
 42
1
  3
txt
  4

  0
ENDTAB
  0
TABLE
  2
VIEW
  5
6
330
0
100
AcDbSymbolTable
 70
    0
  0
ENDTAB
  0
TABLE
  2
UCS
  5
7
330
0
100
AcDbSymbolTable
 70
    0
  0
ENDTAB
  0
TABLE
  2
APPID
  5
9
330
0
100
AcDbSymbolTable
 70
    1
  0
APPID
  5
12
330
9
100
AcDbSymbolTableRecord
100
AcDbRegAppTableRecord
  2
ACAD
 70
    0
  0
APPID
  5
4B
330
9
100
AcDbSymbolTableRecord
100
AcDbRegAppTableRecord
  2
LibreCad
 70
    0
  0
ENDTAB
  0
TABLE
  2
DIMSTYLE
  5
A
330
0
100
AcDbSymbolTable
 70
    1
100
AcDbDimStyleTable
 71
    1
  0
DIMSTYLE
105
4C
330
A
100
AcDbSymbolTableRecord
100
AcDbDimStyleTableRecord
  2
Standard
 70
    0
 40
1
 41
2.5
 42
0.625
 43
0.38
 44
1.25
 45
0
 46
0
 47
0
 48
0
 49
1
140
2.5
141
0.09
142
0
143
25.4
144
1
145
0
146
1
147
0.625
148
0
 71
    0
 72
    0
 73
    0
 74
    1
 75
    0
 76
    0
 77
    0
 78
    1
 79
    0
170
    0
171
    2
172
    0
173
    0
174
    0
175
    0
176
    0
177
    0
178
    0
179
    0
271
    2
272
    4
273
    2
274
    2
275
    0
276
    0
277
    2
278
    0
279
    0
280
    0
281
    0
282
    0
283
    1
284
    0
285
    0
286
    0
288
    0
289
    3
340
standard
341

371
   -2
372
   -2
  0
ENDTAB
  0
TABLE
  2
BLOCK_RECORD
  5
1
330
0
100
AcDbSymbolTable
 70
    2
  0
BLOCK_RECORD
  5
1F
330
1
100
AcDbSymbolTableRecord
100
AcDbBlockTableRecord
  2
*Model_Space
 70
    0
280
    1
281
    0
  0
BLOCK_RECORD
  5
1E
330
1
100
AcDbSymbolTableRecord
100
AcDbBlockTableRecord
  2
*Paper_Space
 70
    0
280
    1
281
    0
  0
BLOCK_RECORD
  5
4D
330
1
100
AcDbSymbolTableRecord
100
AcDbBlockTableRecord
  2
*D1
 70
    0
280
    1
281
    0
  0
ENDTAB
  0
ENDSEC
  0
SECTION
  2
BLOCKS
  0
BLOCK
  5
20
330
1F
100
AcDbEntity
  8
0
100
AcDbBlockBegin
  2
*Model_Space
 70
    0
 10
0
 20
0
 30
0
  3
*Model_Space
  1

  0
ENDBLK
  5
21
330
1F
100
AcDbEntity
  8
0
100
AcDbBlockEnd
  0
BLOCK
  5
1C
330
1B
100
AcDbEntity
  8
0
100
AcDbBlockBegin
  2
*Paper_Space
 70
    0
 10
0
 20
0
 30
0
  3
*Paper_Space
  1

  0
ENDBLK
  5
1D
330
1F
100
AcDbEntity
  8
0
100
AcDbBlockEnd
  0
BLOCK
  5
4E
330
4D
100
AcDbEntity
  8
0
100
AcDbBlockBegin
  2
*D1
 70
    1
 10
0
 20
0
  3
*D1
  1

  0
LINE
  5
50
100
AcDbEntity
  8
0
  6
ByBlock
 62
    0
370
   -2
100
AcDbLine
 10
3.826894855694929e-17
 20
324.8878414519989
 11
1.652432291474702e-15
 21
351.25
  0
LINE
  5
51
100
AcDbEntity
  8
0
  6
ByBlock
 62
    0
370
   -2
100
AcDbLine
 10
366.0239649723321
 20
324.8878414519989
 11
366.0239649723321
 21
351.25
  0
LINE
  5
52
100
AcDbEntity
  8
0
  6
ByBlock
 62
    0
370
   -2
100
AcDbLine
 10
1.575894394360803e-15
 20
350
 11
366.0239649723321
 21
350
  0
MTEXT
  5
53
100
AcDbEntity
  8
0
  6
CONTINUOUS
 62
    0
370
   -2
100
AcDbMText
 10
183.011982486166
 20
351.875
 30
0
 40
2.5
 41
13.88888888888935
 71
    5
 72
    1
  1
366.0240
  7
standard
210
0
220
0
230
1
 50
0
 73
    2
 44
1
  0
SOLID
  5
54
100
AcDbEntity
  8
0
  6
ByBlock
 62
    0
370
   -2
100
AcDbTrace
 10
1.575894394360803e-15
 20
350
 30
0
 11
2.500000000000002
 21
350.4162846577728
 31
0
 12
2.500000000000002
 22
349.5837153422272
 32
0
 13
2.500000000000002
 23
349.5837153422272
 33
0
  0
SOLID
  5
55
100
AcDbEntity
  8
0
  6
ByBlock
 62
    0
370
   -2
100
AcDbTrace
 10
366.0239649723321
 20
350
 30
0
 11
363.5239649723321
 21
349.5837153422272
 31
0
 12
363.5239649723321
 22
350.4162846577728
 32
0
 13
363.5239649723321
 23
350.4162846577728
 33
0
  0
ENDBLK
  5
4F
330
4D
100
AcDbEntity
  8
0
100
AcDbBlockEnd
  0
ENDSEC
  0
SECTION
  2
ENTITIES
  0
LWPOLYLINE
  5
56
100
AcDbEntity
  8
0
  6
ByLayer
 62
    0
370
   -1
100
AcDbPolyline
 90
  144
 70
    1
 43
0
 10
328.981
 20
130.868
 10
328.981
 20
130.714
 10
328.965
 20
130.251
 10
328.919
 20
129.638
 10
328.843
 20
129.03
 10
328.739
 20
128.428
 10
328.604
 20
127.834
 10
328.442
 20
127.247
 10
328.251
 20
126.67
 10
328.032
 20
126.104
 10
327.786
 20
125.549
 10
327.514
 20
125.006
 10
327.214
 20
124.476
 10
326.889
 20
123.961
 10
326.537
 20
123.461
 10
326.161
 20
122.978
 10
325.76
 20
122.512
 10
325.443
 20
122.174
 10
325.333
 20
122.065
 10
325.225
 20
121.956
 10
324.886
 20
121.639
 10
324.421
 20
121.238
 10
323.938
 20
120.861
 10
323.438
 20
120.51
 10
322.922
 20
120.184
 10
322.393
 20
119.885
 10
321.85
 20
119.612
 10
321.294
 20
119.366
 10
320.728
 20
119.147
 10
320.151
 20
118.957
 10
319.565
 20
118.794
 10
318.971
 20
118.66
 10
318.368
 20
118.555
 10
317.761
 20
118.479
 10
317.147
 20
118.434
 10
316.685
 20
118.418
 10
316.531
 20
118.418
 10
316.375
 20
118.418
 10
315.912
 20
118.434
 10
315.3
 20
118.479
 10
314.692
 20
118.555
 10
314.09
 20
118.66
 10
313.496
 20
118.794
 10
312.91
 20
118.957
 10
312.332
 20
119.147
 10
311.765
 20
119.366
 10
311.21
 20
119.612
 10
310.668
 20
119.885
 10
310.138
 20
120.184
 10
309.622
 20
120.51
 10
309.124
 20
120.861
 10
308.64
 20
121.238
 10
308.174
 20
121.639
 10
307.836
 20
121.956
 10
307.726
 20
122.065
 10
307.617
 20
122.174
 10
307.301
 20
122.512
 10
306.9
 20
122.978
 10
306.524
 20
123.461
 10
306.172
 20
123.961
 10
305.846
 20
124.476
 10
305.547
 20
125.006
 10
305.274
 20
125.549
 10
305.028
 20
126.104
 10
304.808
 20
126.67
 10
304.618
 20
127.247
 10
304.456
 20
127.834
 10
304.321
 20
128.428
 10
304.217
 20
129.03
 10
304.14
 20
129.638
 10
304.096
 20
130.251
 10
304.081
 20
130.714
 10
304.081
 20
130.868
 10
304.081
 20
131.023
 10
304.096
 20
131.486
 10
304.14
 20
132.099
 10
304.217
 20
132.707
 10
304.321
 20
133.308
 10
304.456
 20
133.903
 10
304.618
 20
134.489
 10
304.808
 20
135.066
 10
305.028
 20
135.633
 10
305.274
 20
136.188
 10
305.547
 20
136.731
 10
305.846
 20
137.26
 10
306.172
 20
137.776
 10
306.524
 20
138.275
 10
306.9
 20
138.759
 10
307.301
 20
139.225
 10
307.617
 20
139.563
 10
307.726
 20
139.672
 10
307.836
 20
139.781
 10
308.174
 20
140.097
 10
308.64
 20
140.499
 10
309.124
 20
140.875
 10
309.622
 20
141.226
 10
310.138
 20
141.553
 10
310.668
 20
141.851
 10
311.21
 20
142.125
 10
311.765
 20
142.371
 10
312.332
 20
142.589
 10
312.91
 20
142.781
 10
313.496
 20
142.943
 10
314.09
 20
143.076
 10
314.692
 20
143.182
 10
315.3
 20
143.257
 10
315.912
 20
143.303
 10
316.375
 20
143.318
 10
316.531
 20
143.318
 10
316.685
 20
143.318
 10
317.147
 20
143.303
 10
317.761
 20
143.257
 10
318.368
 20
143.182
 10
318.971
 20
143.076
 10
319.565
 20
142.943
 10
320.151
 20
142.781
 10
320.728
 20
142.589
 10
321.294
 20
142.371
 10
321.85
 20
142.125
 10
322.393
 20
141.851
 10
322.922
 20
141.553
 10
323.438
 20
141.226
 10
323.938
 20
140.875
 10
324.421
 20
140.499
 10
324.886
 20
140.097
 10
325.225
 20
139.781
 10
325.333
 20
139.672
 10
325.443
 20
139.563
 10
325.76
 20
139.225
 10
326.161
 20
138.759
 10
326.537
 20
138.275
 10
326.889
 20
137.776
 10
327.214
 20
137.26
 10
327.514
 20
136.731
 10
327.786
 20
136.188
 10
328.032
 20
135.633
 10
328.251
 20
135.066
 10
328.442
 20
134.489
 10
328.604
 20
133.903
 10
328.739
 20
133.308
 10
328.843
 20
132.707
 10
328.919
 20
132.099
 10
328.965
 20
131.486
 10
328.981
 20
131.023
  0
LWPOLYLINE
  5
57
100
AcDbEntity
  8
0
  6
ByLayer
 62
    0
370
   -1
100
AcDbPolyline
 90
  144
 70
    1
 43
0
 10
75.145
 20
40.6683
 10
75.145
 20
40.514
 10
75.1296
 20
40.051
 10
75.084
 20
39.4378
 10
75.0085
 20
38.8299
 10
74.90349999999999
 20
38.2281
 10
74.7694
 20
37.6336
 10
74.60680000000001
 20
37.0474
 10
74.416
 20
36.4706
 10
74.1972
 20
35.9039
 10
73.9513
 20
35.3486
 10
73.67829999999999
 20
34.8057
 10
73.3788
 20
34.2761
 10
73.0532
 20
33.761
 10
72.70189999999999
 20
33.2613
 10
72.3254
 20
32.7781
 10
71.9242
 20
32.3122
 10
71.60760000000001
 20
31.974
 10
71.49850000000001
 20
31.8649
 10
71.38930000000001
 20
31.7557
 10
71.05110000000001
 20
31.4392
 10
70.5853
 20
31.0378
 10
70.1019
 20
30.6613
 10
69.6022
 20
30.31
 10
69.08710000000001
 20
29.9844
 10
68.5575
 20
29.685
 10
68.0146
 20
29.4119
 10
67.4593
 20
29.166
 10
66.89279999999999
 20
28.9474
 10
66.3158
 20
28.7564
 10
65.72969999999999
 20
28.5938
 10
65.13509999999999
 20
28.4597
 10
64.5335
 20
28.3547
 10
63.9254
 20
28.2792
 10
63.3124
 20
28.2336
 10
62.8493
 20
28.2182
 10
62.695
 20
28.2182
 10
62.5407
 20
28.2182
 10
62.0776
 20
28.2336
 10
61.4644
 20
28.2792
 10
60.8564
 20
28.3547
 10
60.2547
 20
28.4597
 10
59.6603
 20
28.5938
 10
59.074
 20
28.7564
 10
58.4971
 20
28.9474
 10
57.9306
 20
29.166
 10
57.3753
 20
29.4119
 10
56.8324
 20
29.685
 10
56.3028
 20
29.9844
 10
55.7876
 20
30.31
 10
55.2879
 20
30.6613
 10
54.8047
 20
31.0378
 10
54.3387
 20
31.4392
 10
54.0006
 20
31.7557
 10
53.8915
 20
31.8649
 10
53.7824
 20
31.974
 10
53.4658
 20
32.3122
 10
53.0644
 20
32.7781
 10
52.6879
 20
33.2613
 10
52.3367
 20
33.761
 10
52.0111
 20
34.2761
 10
51.7117
 20
34.8057
 10
51.4388
 20
35.3486
 10
51.1926
 20
35.9039
 10
50.974
 20
36.4706
 10
50.7832
 20
37.0474
 10
50.6204
 20
37.6336
 10
50.4864
 20
38.2281
 10
50.3814
 20
38.8299
 10
50.3058
 20
39.4378
 10
50.2603
 20
40.051
 10
50.245
 20
40.514
 10
50.245
 20
40.6683
 10
50.245
 20
40.8226
 10
50.2603
 20
41.2857
 10
50.3058
 20
41.8987
 10
50.3814
 20
42.5068
 10
50.4864
 20
43.1085
 10
50.6204
 20
43.7031
 10
50.7832
 20
44.2892
 10
50.974
 20
44.8661
 10
51.1926
 20
45.4328
 10
51.4388
 20
45.9879
 10
51.7117
 20
46.5308
 10
52.0111
 20
47.0604
 10
52.3367
 20
47.5756
 10
52.6879
 20
48.0753
 10
53.0644
 20
48.5586
 10
53.4658
 20
49.0244
 10
53.7824
 20
49.3626
 10
53.8915
 20
49.4717
 10
54.0006
 20
49.5808
 10
54.3387
 20
49.8975
 10
54.8047
 20
50.2989
 10
55.2879
 20
50.6753
 10
55.7876
 20
51.0265
 10
56.3028
 20
51.3521
 10
56.8324
 20
51.6515
 10
57.3753
 20
51.9246
 10
57.9306
 20
52.1706
 10
58.4971
 20
52.3893
 10
59.074
 20
52.5801
 10
59.6603
 20
52.7428
 10
60.2547
 20
52.8768
 10
60.8564
 20
52.9819
 10
61.4644
 20
53.0574
 10
62.0776
 20
53.1029
 10
62.5407
 20
53.1183
 10
62.695
 20
53.1183
 10
62.8493
 20
53.1183
 10
63.3124
 20
53.1029
 10
63.9254
 20
53.0574
 10
64.5335
 20
52.9819
 10
65.13509999999999
 20
52.8768
 10
65.72969999999999
 20
52.7428
 10
66.3158
 20
52.5801
 10
66.89279999999999
 20
52.3893
 10
67.4593
 20
52.1706
 10
68.0146
 20
51.9246
 10
68.5575
 20
51.6515
 10
69.08710000000001
 20
51.3521
 10
69.6022
 20
51.0265
 10
70.1019
 20
50.6753
 10
70.5853
 20
50.2989
 10
71.05110000000001
 20
49.8975
 10
71.38930000000001
 20
49.5808
 10
71.49850000000001
 20
49.4717
 10
71.60760000000001
 20
49.3626
 10
71.9242
 20
49.0244
 10
72.3254
 20
48.5586
 10
72.70189999999999
 20
48.0753
 10
73.0532
 20
47.5756
 10
73.3788
 20
47.0604
 10
73.67829999999999
 20
46.5308
 10
73.9513
 20
45.9879
 10
74.1972
 20
45.4328
 10
74.416
 20
44.8661
 10
74.60680000000001
 20
44.2892
 10
74.7694
 20
43.7031
 10
74.90349999999999
 20
43.1085
 10
75.0085
 20
42.5068
 10
75.084
 20
41.8987
 10
75.1296
 20
41.2857
 10
75.145
 20
40.8226
  0
LWPOLYLINE
  5
58
100
AcDbEntity
  8
0
  6
ByLayer
 62
    0
370
   -1
100
AcDbPolyline
 90
   36
 70
    1
 43
0
 10
276.319
 20
239.389
 10
266.219
 20
239.389
 10
266.219
 20
244.389
 10
261.319
 20
244.389
 10
261.319
 20
239.389
 10
16.22
 20
239.389
 10
16.22
 20
244.389
 10
11.32
 20
244.389
 10
11.32
 20
239.389
 10
1.22
 20
239.389
 10
1.22
 20
249.489
 10
6.22
 20
249.489
 10
6.22
 20
254.389
 10
1.22
 20
254.389
 10
1.22
 20
310.489
 10
6.22
 20
310.489
 10
6.22
 20
315.389
 10
1.22
 20
315.389
 10
1.22
 20
325.489
 10
11.32
 20
325.489
 10
11.32
 20
320.489
 10
16.22
 20
320.489
 10
16.22
 20
325.489
 10
261.319
 20
325.489
 10
261.319
 20
320.489
 10
266.219
 20
320.489
 10
266.219
 20
325.489
 10
276.319
 20
325.489
 10
276.319
 20
315.389
 10
271.319
 20
315.389
 10
271.319
 20
310.489
 10
276.319
 20
310.489
 10
276.319
 20
254.389
 10
271.319
 20
254.389
 10
271.319
 20
249.489
 10
276.319
 20
249.489
  0
LWPOLYLINE
  5
59
100
AcDbEntity
  8
0
  6
ByLayer
 62
    0
370
   -1
100
AcDbPolyline
 90
   16
 70
    0
 43
0
 10
361.517
 20
252.308
 10
361.517
 20
326.208
 10
305.315
 20
326.208
 10
305.315
 20
323.208
 10
277.015
 20
323.208
 10
277.015
 20
255.308
 10
305.315
 20
255.308
 10
305.315
 20
252.308
 10
362.982
 20
252.308
 10
362.982
 20
178.408
 10
306.779
 20
178.408
 10
306.779
 20
181.408
 10
278.481
 20
181.408
 10
278.481
 20
249.308
 10
306.779
 20
249.308
 10
306.779
 20
252.308
  0
LWPOLYLINE
  5
5A
100
AcDbEntity
  8
0
  6
ByLayer
 62
    0
370
   -1
100
AcDbPolyline
 90
   21
 70
    0
 43
0
 10
270.6
 20
155.71
 10
270.6
 20
220.71
 10
275.6
 20
220.71
 10
275.6
 20
225.81
 10
270.6
 20
225.81
 10
270.6
 20
230.81
 10
265.6
 20
230.81
 10
265.6
 20
235.81
 10
260.5
 20
235.81
 10
260.5
 20
230.81
 10
15.6
 20
230.81
 10
15.6
 20
235.81
 10
10.5
 20
235.81
 10
10.5
 20
230.81
 10
5.5
 20
230.81
 10
5.5
 20
225.81
 10
0.5
 20
225.81
 10
0.5
 20
220.71
 10
5.5
 20
220.71
 10
5.5
 20
155.71
 10
273.481
 20
155.71
  0
LWPOLYLINE
  5
5B
100
AcDbEntity
  8
0
  6
ByLayer
 62
    0
370
   -1
100
AcDbPolyline
 90
   39
 70
    0
 43
0
 10
8.379989999999999
 20
155.71
 10
8.379989999999999
 20
90.7099
 10
3.37999
 20
90.7099
 10
3.37999
 20
85.6099
 10
8.379989999999999
 20
85.6099
 10
8.379989999999999
 20
80.6099
 10
13.38
 20
80.6099
 10
13.38
 20
75.6099
 10
18.48
 20
75.6099
 10
18.48
 20
80.6099
 10
263.381
 20
80.6099
 10
263.381
 20
75.6099
 10
268.481
 20
75.6099
 10
268.481
 20
80.6099
 10
273.481
 20
80.6099
 10
273.481
 20
85.6099
 10
278.481
 20
85.6099
 10
278.481
 20
90.7099
 10
273.481
 20
90.7099
 10
273.481
 20
155.81
 10
278.481
 20
155.81
 10
278.481
 20
160.71
 10
273.481
 20
160.71
 10
273.481
 20
165.81
 10
283.481
 20
165.81
 10
283.481
 20
170.81
 10
288.581
 20
170.81
 10
288.581
 20
165.81
 10
344.481
 20
165.81
 10
344.481
 20
170.81
 10
349.581
 20
170.81
 10
349.581
 20
165.81
 10
359.581
 20
165.81
 10
359.581
 20
160.71
 10
354.581
 20
160.71
 10
354.581
 20
155.81
 10
359.581
 20
155.81
 10
359.581
 20
90.7099
 10
273.481
 20
90.7099
  0
LWPOLYLINE
  5
5C
100
AcDbEntity
  8
0
  6
ByLayer
 62
    0
370
   -1
100
AcDbPolyline
 90
    8
 70
    0
 43
0
 10
334.682
 20
90.7099
 10
334.682
 20
87.7099
 10
362.982
 20
87.7099
 10
362.982
 20
19.8097
 10
334.682
 20
19.8097
 10
334.682
 20
16.8097
 10
278.481
 20
16.8097
 10
278.481
 20
90.7099
  0
LWPOLYLINE
  5
5D
100
AcDbEntity
  8
0
  6
ByLayer
 62
    0
370
   -1
100
AcDbPolyline
 90
   21
 70
    0
 43
0
 10
105.745
 20
65.6099
 10
100.745
 20
65.6099
 10
100.745
 20
70.5099
 10
105.745
 20
70.5099
 10
105.745
 20
75.6099
 10
95.745
 20
75.6099
 10
95.745
 20
80.6099
 10
90.645
 20
80.6099
 10
90.645
 20
75.6099
 10
34.745
 20
75.6099
 10
34.745
 20
80.6099
 10
29.645
 20
80.6099
 10
29.645
 20
75.6099
 10
19.645
 20
75.6099
 10
19.645
 20
70.5099
 10
24.645
 20
70.5099
 10
24.645
 20
65.6099
 10
19.645
 20
65.6099
 10
19.645
 20
0.509819
 10
105.745
 20
0.509819
 10
105.745
 20
80.6099
  0
LWPOLYLINE
  5
5E
100
AcDbEntity
  8
0
  6
ByLayer
 62
    0
370
   -1
100
AcDbPolyline
 90
    4
 70
    0
 43
0
 10
161.947
 20
80.6099
 10
161.947
 20
77.6099
 10
190.247
 20
77.6099
 10
190.247
 20
1.3539
  0
LWPOLYLINE
  5
5F
100
AcDbEntity
  8
0
  6
ByLayer
 62
    0
370
   -1
100
AcDbPolyline
 90
    4
 70
    0
 43
0
 10
105.745
 20
6.70979
 10
161.947
 20
6.70979
 10
161.947
 20
9.70979
 10
190.247
 20
9.70979
  0
LWPOLYLINE
  5
60
100
AcDbEntity
  8
0
  6
ByLayer
 62
    0
370
   -1
100
AcDbPolyline
 90
    8
 70
    0
 43
0
 10
190.247
 20
75.2539
 10
246.45
 20
75.2539
 10
246.45
 20
72.2539
 10
274.749
 20
72.2539
 10
274.749
 20
4.35389
 10
246.45
 20
4.35389
 10
246.45
 20
1.3539
 10
190.247
 20
1.3539
  0
LWPOLYLINE
  5
61
100
AcDbEntity
  8
0
  6
ByLayer
 62
  256
370
   -1
100
AcDbPolyline
 90
    4
 70
    1
 43
0
 10
0
 20
324.2628414519989
 10
366.0239649723321
 20
324.2628414519989
 10
366.0239649723321
 20
-3.070670847083323
 10
0
 20
-3.070670847083323
  0
DIMENSION
  5
62
100
AcDbEntity
  8
0
  6
ByLayer
 62
  256
370
   -1
100
AcDbDimension
  2
*D1
 10
366.0239649723321
 20
350
 30
0
 11
183.011982486166
 21
351.875
 31
0
 70
   33
 71
    5
  3
Standard
 53
0
210
0
220
0
230
1
100
AcDbAlignedDimension
 13
0
 23
324.2628414519989
 33
0
 14
366.0239649723321
 24
324.2628414519989
 34
0
  0
ENDSEC
  0
SECTION
  2
OBJECTS
  0
DICTIONARY
  5
C
330
0
100
AcDbDictionary
281
    1
  3
ACAD_GROUP
350
D
  0
DICTIONARY
  5
D
330
C
100
AcDbDictionary
281
    1
  0
PLOTSETTINGS
  5
63
100
AcDbPlotSettings
  6
1x1
 40
0
 41
0
 42
0
 43
0
  0
ENDSEC
  0
EOF
