  0
SECTION
  2
HEADER
  9
$ACADVER
  1
AC1009
  9
$EXTMIN
 10
0.0
 20
0.0
 30
0.0
  9
$EXTMAX
 10
1000.0
 20
1000.0
 30
0.0
  9
$FILLMODE
 70
 0
  9
$SPLFRAME
 70
 1
  0
ENDSEC
  0
SECTION
  2
TABLES
  0
TABLE
  2
LAYER
 70
1
  0
LAYER
  2
0
 70
     0
 62
     7
  6
CONTINUOUS
  0
ENDTAB
  0
ENDSEC
  0
SECTION
  2
ENTITIES
  0
POLYLINE
  8
0
 62
     0
 66
     1
 10
0
 20
0
 30
0.0
 70
     1
 40
72
 41
72
  0
VERTEX
  8
0
 10
328.981
 20
130.868
 30
0.0
 40
1
 41
1
  0
VERTEX
  8
0
 10
328.981
 20
130.714
 30
0.0
 40
1
 41
1
  0
VERTEX
  8
0
 10
328.965
 20
130.251
 30
0.0
 40
1
 41
1
  0
VERTEX
  8
0
 10
328.919
 20
129.638
 30
0.0
 40
1
 41
1
  0
VERTEX
  8
0
 10
328.843
 20
129.03
 30
0.0
 40
1
 41
1
  0
VERTEX
  8
0
 10
328.739
 20
128.428
 30
0.0
 40
1
 41
1
  0
VERTEX
  8
0
 10
328.604
 20
127.834
 30
0.0
 40
1
 41
1
  0
VERTEX
  8
0
 10
328.442
 20
127.247
 30
0.0
 40
1
 41
1
  0
VERTEX
  8
0
 10
328.251
 20
126.67
 30
0.0
 40
1
 41
1
  0
VERTEX
  8
0
 10
328.032
 20
126.104
 30
0.0
 40
1
 41
1
  0
VERTEX
  8
0
 10
327.786
 20
125.549
 30
0.0
 40
1
 41
1
  0
VERTEX
  8
0
 10
327.514
 20
125.006
 30
0.0
 40
1
 41
1
  0
VERTEX
  8
0
 10
327.214
 20
124.476
 30
0.0
 40
1
 41
1
  0
VERTEX
  8
0
 10
326.889
 20
123.961
 30
0.0
 40
1
 41
1
  0
VERTEX
  8
0
 10
326.537
 20
123.461
 30
0.0
 40
1
 41
1
  0
VERTEX
  8
0
 10
326.161
 20
122.978
 30
0.0
 40
1
 41
1
  0
VERTEX
  8
0
 10
325.76
 20
122.512
 30
0.0
 40
1
 41
1
  0
VERTEX
  8
0
 10
325.443
 20
122.174
 30
0.0
 40
1
 41
1
  0
VERTEX
  8
0
 10
325.333
 20
122.065
 30
0.0
 40
1
 41
1
  0
VERTEX
  8
0
 10
325.225
 20
121.956
 30
0.0
 40
1
 41
1
  0
VERTEX
  8
0
 10
324.886
 20
121.639
 30
0.0
 40
1
 41
1
  0
VERTEX
  8
0
 10
324.421
 20
121.238
 30
0.0
 40
1
 41
1
  0
VERTEX
  8
0
 10
323.938
 20
120.861
 30
0.0
 40
1
 41
1
  0
VERTEX
  8
0
 10
323.438
 20
120.51
 30
0.0
 40
1
 41
1
  0
VERTEX
  8
0
 10
322.922
 20
120.184
 30
0.0
 40
1
 41
1
  0
VERTEX
  8
0
 10
322.393
 20
119.885
 30
0.0
 40
1
 41
1
  0
VERTEX
  8
0
 10
321.85
 20
119.612
 30
0.0
 40
1
 41
1
  0
VERTEX
  8
0
 10
321.294
 20
119.366
 30
0.0
 40
1
 41
1
  0
VERTEX
  8
0
 10
320.728
 20
119.147
 30
0.0
 40
1
 41
1
  0
VERTEX
  8
0
 10
320.151
 20
118.957
 30
0.0
 40
1
 41
1
  0
VERTEX
  8
0
 10
319.565
 20
118.794
 30
0.0
 40
1
 41
1
  0
VERTEX
  8
0
 10
318.971
 20
118.66
 30
0.0
 40
1
 41
1
  0
VERTEX
  8
0
 10
318.368
 20
118.555
 30
0.0
 40
1
 41
1
  0
VERTEX
  8
0
 10
317.761
 20
118.479
 30
0.0
 40
1
 41
1
  0
VERTEX
  8
0
 10
317.147
 20
118.434
 30
0.0
 40
1
 41
1
  0
VERTEX
  8
0
 10
316.685
 20
118.418
 30
0.0
 40
1
 41
1
  0
VERTEX
  8
0
 10
316.531
 20
118.418
 30
0.0
 40
1
 41
1
  0
VERTEX
  8
0
 10
316.375
 20
118.418
 30
0.0
 40
1
 41
1
  0
VERTEX
  8
0
 10
315.912
 20
118.434
 30
0.0
 40
1
 41
1
  0
VERTEX
  8
0
 10
315.3
 20
118.479
 30
0.0
 40
1
 41
1
  0
VERTEX
  8
0
 10
314.692
 20
118.555
 30
0.0
 40
1
 41
1
  0
VERTEX
  8
0
 10
314.09
 20
118.66
 30
0.0
 40
1
 41
1
  0
VERTEX
  8
0
 10
313.496
 20
118.794
 30
0.0
 40
1
 41
1
  0
VERTEX
  8
0
 10
312.91
 20
118.957
 30
0.0
 40
1
 41
1
  0
VERTEX
  8
0
 10
312.332
 20
119.147
 30
0.0
 40
1
 41
1
  0
VERTEX
  8
0
 10
311.765
 20
119.366
 30
0.0
 40
1
 41
1
  0
VERTEX
  8
0
 10
311.21
 20
119.612
 30
0.0
 40
1
 41
1
  0
VERTEX
  8
0
 10
310.668
 20
119.885
 30
0.0
 40
1
 41
1
  0
VERTEX
  8
0
 10
310.138
 20
120.184
 30
0.0
 40
1
 41
1
  0
VERTEX
  8
0
 10
309.622
 20
120.51
 30
0.0
 40
1
 41
1
  0
VERTEX
  8
0
 10
309.124
 20
120.861
 30
0.0
 40
1
 41
1
  0
VERTEX
  8
0
 10
308.64
 20
121.238
 30
0.0
 40
1
 41
1
  0
VERTEX
  8
0
 10
308.174
 20
121.639
 30
0.0
 40
1
 41
1
  0
VERTEX
  8
0
 10
307.836
 20
121.956
 30
0.0
 40
1
 41
1
  0
VERTEX
  8
0
 10
307.726
 20
122.065
 30
0.0
 40
1
 41
1
  0
VERTEX
  8
0
 10
307.617
 20
122.174
 30
0.0
 40
1
 41
1
  0
VERTEX
  8
0
 10
307.301
 20
122.512
 30
0.0
 40
1
 41
1
  0
VERTEX
  8
0
 10
306.9
 20
122.978
 30
0.0
 40
1
 41
1
  0
VERTEX
  8
0
 10
306.524
 20
123.461
 30
0.0
 40
1
 41
1
  0
VERTEX
  8
0
 10
306.172
 20
123.961
 30
0.0
 40
1
 41
1
  0
VERTEX
  8
0
 10
305.846
 20
124.476
 30
0.0
 40
1
 41
1
  0
VERTEX
  8
0
 10
305.547
 20
125.006
 30
0.0
 40
1
 41
1
  0
VERTEX
  8
0
 10
305.274
 20
125.549
 30
0.0
 40
1
 41
1
  0
VERTEX
  8
0
 10
305.028
 20
126.104
 30
0.0
 40
1
 41
1
  0
VERTEX
  8
0
 10
304.808
 20
126.67
 30
0.0
 40
1
 41
1
  0
VERTEX
  8
0
 10
304.618
 20
127.247
 30
0.0
 40
1
 41
1
  0
VERTEX
  8
0
 10
304.456
 20
127.834
 30
0.0
 40
1
 41
1
  0
VERTEX
  8
0
 10
304.321
 20
128.428
 30
0.0
 40
1
 41
1
  0
VERTEX
  8
0
 10
304.217
 20
129.03
 30
0.0
 40
1
 41
1
  0
VERTEX
  8
0
 10
304.14
 20
129.638
 30
0.0
 40
1
 41
1
  0
VERTEX
  8
0
 10
304.096
 20
130.251
 30
0.0
 40
1
 41
1
  0
VERTEX
  8
0
 10
304.081
 20
130.714
 30
0.0
 40
1
 41
1
  0
VERTEX
  8
0
 10
304.081
 20
130.868
 30
0.0
 40
1
 41
1
  0
VERTEX
  8
0
 10
304.081
 20
131.023
 30
0.0
 40
1
 41
1
  0
VERTEX
  8
0
 10
304.096
 20
131.486
 30
0.0
 40
1
 41
1
  0
VERTEX
  8
0
 10
304.14
 20
132.099
 30
0.0
 40
1
 41
1
  0
VERTEX
  8
0
 10
304.217
 20
132.707
 30
0.0
 40
1
 41
1
  0
VERTEX
  8
0
 10
304.321
 20
133.308
 30
0.0
 40
1
 41
1
  0
VERTEX
  8
0
 10
304.456
 20
133.903
 30
0.0
 40
1
 41
1
  0
VERTEX
  8
0
 10
304.618
 20
134.489
 30
0.0
 40
1
 41
1
  0
VERTEX
  8
0
 10
304.808
 20
135.066
 30
0.0
 40
1
 41
1
  0
VERTEX
  8
0
 10
305.028
 20
135.633
 30
0.0
 40
1
 41
1
  0
VERTEX
  8
0
 10
305.274
 20
136.188
 30
0.0
 40
1
 41
1
  0
VERTEX
  8
0
 10
305.547
 20
136.731
 30
0.0
 40
1
 41
1
  0
VERTEX
  8
0
 10
305.846
 20
137.26
 30
0.0
 40
1
 41
1
  0
VERTEX
  8
0
 10
306.172
 20
137.776
 30
0.0
 40
1
 41
1
  0
VERTEX
  8
0
 10
306.524
 20
138.275
 30
0.0
 40
1
 41
1
  0
VERTEX
  8
0
 10
306.9
 20
138.759
 30
0.0
 40
1
 41
1
  0
VERTEX
  8
0
 10
307.301
 20
139.225
 30
0.0
 40
1
 41
1
  0
VERTEX
  8
0
 10
307.617
 20
139.563
 30
0.0
 40
1
 41
1
  0
VERTEX
  8
0
 10
307.726
 20
139.672
 30
0.0
 40
1
 41
1
  0
VERTEX
  8
0
 10
307.836
 20
139.781
 30
0.0
 40
1
 41
1
  0
VERTEX
  8
0
 10
308.174
 20
140.097
 30
0.0
 40
1
 41
1
  0
VERTEX
  8
0
 10
308.64
 20
140.499
 30
0.0
 40
1
 41
1
  0
VERTEX
  8
0
 10
309.124
 20
140.875
 30
0.0
 40
1
 41
1
  0
VERTEX
  8
0
 10
309.622
 20
141.226
 30
0.0
 40
1
 41
1
  0
VERTEX
  8
0
 10
310.138
 20
141.553
 30
0.0
 40
1
 41
1
  0
VERTEX
  8
0
 10
310.668
 20
141.851
 30
0.0
 40
1
 41
1
  0
VERTEX
  8
0
 10
311.21
 20
142.125
 30
0.0
 40
1
 41
1
  0
VERTEX
  8
0
 10
311.765
 20
142.371
 30
0.0
 40
1
 41
1
  0
VERTEX
  8
0
 10
312.332
 20
142.589
 30
0.0
 40
1
 41
1
  0
VERTEX
  8
0
 10
312.91
 20
142.781
 30
0.0
 40
1
 41
1
  0
VERTEX
  8
0
 10
313.496
 20
142.943
 30
0.0
 40
1
 41
1
  0
VERTEX
  8
0
 10
314.09
 20
143.076
 30
0.0
 40
1
 41
1
  0
VERTEX
  8
0
 10
314.692
 20
143.182
 30
0.0
 40
1
 41
1
  0
VERTEX
  8
0
 10
315.3
 20
143.257
 30
0.0
 40
1
 41
1
  0
VERTEX
  8
0
 10
315.912
 20
143.303
 30
0.0
 40
1
 41
1
  0
VERTEX
  8
0
 10
316.375
 20
143.318
 30
0.0
 40
1
 41
1
  0
VERTEX
  8
0
 10
316.531
 20
143.318
 30
0.0
 40
1
 41
1
  0
VERTEX
  8
0
 10
316.685
 20
143.318
 30
0.0
 40
1
 41
1
  0
VERTEX
  8
0
 10
317.147
 20
143.303
 30
0.0
 40
1
 41
1
  0
VERTEX
  8
0
 10
317.761
 20
143.257
 30
0.0
 40
1
 41
1
  0
VERTEX
  8
0
 10
318.368
 20
143.182
 30
0.0
 40
1
 41
1
  0
VERTEX
  8
0
 10
318.971
 20
143.076
 30
0.0
 40
1
 41
1
  0
VERTEX
  8
0
 10
319.565
 20
142.943
 30
0.0
 40
1
 41
1
  0
VERTEX
  8
0
 10
320.151
 20
142.781
 30
0.0
 40
1
 41
1
  0
VERTEX
  8
0
 10
320.728
 20
142.589
 30
0.0
 40
1
 41
1
  0
VERTEX
  8
0
 10
321.294
 20
142.371
 30
0.0
 40
1
 41
1
  0
VERTEX
  8
0
 10
321.85
 20
142.125
 30
0.0
 40
1
 41
1
  0
VERTEX
  8
0
 10
322.393
 20
141.851
 30
0.0
 40
1
 41
1
  0
VERTEX
  8
0
 10
322.922
 20
141.553
 30
0.0
 40
1
 41
1
  0
VERTEX
  8
0
 10
323.438
 20
141.226
 30
0.0
 40
1
 41
1
  0
VERTEX
  8
0
 10
323.938
 20
140.875
 30
0.0
 40
1
 41
1
  0
VERTEX
  8
0
 10
324.421
 20
140.499
 30
0.0
 40
1
 41
1
  0
VERTEX
  8
0
 10
324.886
 20
140.097
 30
0.0
 40
1
 41
1
  0
VERTEX
  8
0
 10
325.225
 20
139.781
 30
0.0
 40
1
 41
1
  0
VERTEX
  8
0
 10
325.333
 20
139.672
 30
0.0
 40
1
 41
1
  0
VERTEX
  8
0
 10
325.443
 20
139.563
 30
0.0
 40
1
 41
1
  0
VERTEX
  8
0
 10
325.76
 20
139.225
 30
0.0
 40
1
 41
1
  0
VERTEX
  8
0
 10
326.161
 20
138.759
 30
0.0
 40
1
 41
1
  0
VERTEX
  8
0
 10
326.537
 20
138.275
 30
0.0
 40
1
 41
1
  0
VERTEX
  8
0
 10
326.889
 20
137.776
 30
0.0
 40
1
 41
1
  0
VERTEX
  8
0
 10
327.214
 20
137.26
 30
0.0
 40
1
 41
1
  0
VERTEX
  8
0
 10
327.514
 20
136.731
 30
0.0
 40
1
 41
1
  0
VERTEX
  8
0
 10
327.786
 20
136.188
 30
0.0
 40
1
 41
1
  0
VERTEX
  8
0
 10
328.032
 20
135.633
 30
0.0
 40
1
 41
1
  0
VERTEX
  8
0
 10
328.251
 20
135.066
 30
0.0
 40
1
 41
1
  0
VERTEX
  8
0
 10
328.442
 20
134.489
 30
0.0
 40
1
 41
1
  0
VERTEX
  8
0
 10
328.604
 20
133.903
 30
0.0
 40
1
 41
1
  0
VERTEX
  8
0
 10
328.739
 20
133.308
 30
0.0
 40
1
 41
1
  0
VERTEX
  8
0
 10
328.843
 20
132.707
 30
0.0
 40
1
 41
1
  0
VERTEX
  8
0
 10
328.919
 20
132.099
 30
0.0
 40
1
 41
1
  0
VERTEX
  8
0
 10
328.965
 20
131.486
 30
0.0
 40
1
 41
1
  0
VERTEX
  8
0
 10
328.981
 20
131.023
 30
0.0
 40
1
 41
1
  0
VERTEX
  8
0
 10
328.981
 20
130.868
 30
0.0
 40
1
 41
1
  0
SEQEND
 8
0
  0
POLYLINE
  8
0
 62
     0
 66
     1
 10
0
 20
0
 30
0.0
 70
     1
 40
72
 41
72
  0
VERTEX
  8
0
 10
75.145
 20
40.6683
 30
0.0
 40
1
 41
1
  0
VERTEX
  8
0
 10
75.145
 20
40.514
 30
0.0
 40
1
 41
1
  0
VERTEX
  8
0
 10
75.1296
 20
40.051
 30
0.0
 40
1
 41
1
  0
VERTEX
  8
0
 10
75.084
 20
39.4378
 30
0.0
 40
1
 41
1
  0
VERTEX
  8
0
 10
75.0085
 20
38.8299
 30
0.0
 40
1
 41
1
  0
VERTEX
  8
0
 10
74.9035
 20
38.2281
 30
0.0
 40
1
 41
1
  0
VERTEX
  8
0
 10
74.7694
 20
37.6336
 30
0.0
 40
1
 41
1
  0
VERTEX
  8
0
 10
74.6068
 20
37.0474
 30
0.0
 40
1
 41
1
  0
VERTEX
  8
0
 10
74.416
 20
36.4706
 30
0.0
 40
1
 41
1
  0
VERTEX
  8
0
 10
74.1972
 20
35.9039
 30
0.0
 40
1
 41
1
  0
VERTEX
  8
0
 10
73.9513
 20
35.3486
 30
0.0
 40
1
 41
1
  0
VERTEX
  8
0
 10
73.6783
 20
34.8057
 30
0.0
 40
1
 41
1
  0
VERTEX
  8
0
 10
73.3788
 20
34.2761
 30
0.0
 40
1
 41
1
  0
VERTEX
  8
0
 10
73.0532
 20
33.761
 30
0.0
 40
1
 41
1
  0
VERTEX
  8
0
 10
72.7019
 20
33.2613
 30
0.0
 40
1
 41
1
  0
VERTEX
  8
0
 10
72.3254
 20
32.7781
 30
0.0
 40
1
 41
1
  0
VERTEX
  8
0
 10
71.9242
 20
32.3122
 30
0.0
 40
1
 41
1
  0
VERTEX
  8
0
 10
71.6076
 20
31.974
 30
0.0
 40
1
 41
1
  0
VERTEX
  8
0
 10
71.4985
 20
31.8649
 30
0.0
 40
1
 41
1
  0
VERTEX
  8
0
 10
71.3893
 20
31.7557
 30
0.0
 40
1
 41
1
  0
VERTEX
  8
0
 10
71.0511
 20
31.4392
 30
0.0
 40
1
 41
1
  0
VERTEX
  8
0
 10
70.5853
 20
31.0378
 30
0.0
 40
1
 41
1
  0
VERTEX
  8
0
 10
70.1019
 20
30.6613
 30
0.0
 40
1
 41
1
  0
VERTEX
  8
0
 10
69.6022
 20
30.31
 30
0.0
 40
1
 41
1
  0
VERTEX
  8
0
 10
69.0871
 20
29.9844
 30
0.0
 40
1
 41
1
  0
VERTEX
  8
0
 10
68.5575
 20
29.685
 30
0.0
 40
1
 41
1
  0
VERTEX
  8
0
 10
68.0146
 20
29.4119
 30
0.0
 40
1
 41
1
  0
VERTEX
  8
0
 10
67.4593
 20
29.166
 30
0.0
 40
1
 41
1
  0
VERTEX
  8
0
 10
66.8928
 20
28.9474
 30
0.0
 40
1
 41
1
  0
VERTEX
  8
0
 10
66.3158
 20
28.7564
 30
0.0
 40
1
 41
1
  0
VERTEX
  8
0
 10
65.7297
 20
28.5938
 30
0.0
 40
1
 41
1
  0
VERTEX
  8
0
 10
65.1351
 20
28.4597
 30
0.0
 40
1
 41
1
  0
VERTEX
  8
0
 10
64.5335
 20
28.3547
 30
0.0
 40
1
 41
1
  0
VERTEX
  8
0
 10
63.9254
 20
28.2792
 30
0.0
 40
1
 41
1
  0
VERTEX
  8
0
 10
63.3124
 20
28.2336
 30
0.0
 40
1
 41
1
  0
VERTEX
  8
0
 10
62.8493
 20
28.2182
 30
0.0
 40
1
 41
1
  0
VERTEX
  8
0
 10
62.695
 20
28.2182
 30
0.0
 40
1
 41
1
  0
VERTEX
  8
0
 10
62.5407
 20
28.2182
 30
0.0
 40
1
 41
1
  0
VERTEX
  8
0
 10
62.0776
 20
28.2336
 30
0.0
 40
1
 41
1
  0
VERTEX
  8
0
 10
61.4644
 20
28.2792
 30
0.0
 40
1
 41
1
  0
VERTEX
  8
0
 10
60.8564
 20
28.3547
 30
0.0
 40
1
 41
1
  0
VERTEX
  8
0
 10
60.2547
 20
28.4597
 30
0.0
 40
1
 41
1
  0
VERTEX
  8
0
 10
59.6603
 20
28.5938
 30
0.0
 40
1
 41
1
  0
VERTEX
  8
0
 10
59.074
 20
28.7564
 30
0.0
 40
1
 41
1
  0
VERTEX
  8
0
 10
58.4971
 20
28.9474
 30
0.0
 40
1
 41
1
  0
VERTEX
  8
0
 10
57.9306
 20
29.166
 30
0.0
 40
1
 41
1
  0
VERTEX
  8
0
 10
57.3753
 20
29.4119
 30
0.0
 40
1
 41
1
  0
VERTEX
  8
0
 10
56.8324
 20
29.685
 30
0.0
 40
1
 41
1
  0
VERTEX
  8
0
 10
56.3028
 20
29.9844
 30
0.0
 40
1
 41
1
  0
VERTEX
  8
0
 10
55.7876
 20
30.31
 30
0.0
 40
1
 41
1
  0
VERTEX
  8
0
 10
55.2879
 20
30.6613
 30
0.0
 40
1
 41
1
  0
VERTEX
  8
0
 10
54.8047
 20
31.0378
 30
0.0
 40
1
 41
1
  0
VERTEX
  8
0
 10
54.3387
 20
31.4392
 30
0.0
 40
1
 41
1
  0
VERTEX
  8
0
 10
54.0006
 20
31.7557
 30
0.0
 40
1
 41
1
  0
VERTEX
  8
0
 10
53.8915
 20
31.8649
 30
0.0
 40
1
 41
1
  0
VERTEX
  8
0
 10
53.7824
 20
31.974
 30
0.0
 40
1
 41
1
  0
VERTEX
  8
0
 10
53.4658
 20
32.3122
 30
0.0
 40
1
 41
1
  0
VERTEX
  8
0
 10
53.0644
 20
32.7781
 30
0.0
 40
1
 41
1
  0
VERTEX
  8
0
 10
52.6879
 20
33.2613
 30
0.0
 40
1
 41
1
  0
VERTEX
  8
0
 10
52.3367
 20
33.761
 30
0.0
 40
1
 41
1
  0
VERTEX
  8
0
 10
52.0111
 20
34.2761
 30
0.0
 40
1
 41
1
  0
VERTEX
  8
0
 10
51.7117
 20
34.8057
 30
0.0
 40
1
 41
1
  0
VERTEX
  8
0
 10
51.4388
 20
35.3486
 30
0.0
 40
1
 41
1
  0
VERTEX
  8
0
 10
51.1926
 20
35.9039
 30
0.0
 40
1
 41
1
  0
VERTEX
  8
0
 10
50.974
 20
36.4706
 30
0.0
 40
1
 41
1
  0
VERTEX
  8
0
 10
50.7832
 20
37.0474
 30
0.0
 40
1
 41
1
  0
VERTEX
  8
0
 10
50.6204
 20
37.6336
 30
0.0
 40
1
 41
1
  0
VERTEX
  8
0
 10
50.4864
 20
38.2281
 30
0.0
 40
1
 41
1
  0
VERTEX
  8
0
 10
50.3814
 20
38.8299
 30
0.0
 40
1
 41
1
  0
VERTEX
  8
0
 10
50.3058
 20
39.4378
 30
0.0
 40
1
 41
1
  0
VERTEX
  8
0
 10
50.2603
 20
40.051
 30
0.0
 40
1
 41
1
  0
VERTEX
  8
0
 10
50.245
 20
40.514
 30
0.0
 40
1
 41
1
  0
VERTEX
  8
0
 10
50.245
 20
40.6683
 30
0.0
 40
1
 41
1
  0
VERTEX
  8
0
 10
50.245
 20
40.8226
 30
0.0
 40
1
 41
1
  0
VERTEX
  8
0
 10
50.2603
 20
41.2857
 30
0.0
 40
1
 41
1
  0
VERTEX
  8
0
 10
50.3058
 20
41.8987
 30
0.0
 40
1
 41
1
  0
VERTEX
  8
0
 10
50.3814
 20
42.5068
 30
0.0
 40
1
 41
1
  0
VERTEX
  8
0
 10
50.4864
 20
43.1085
 30
0.0
 40
1
 41
1
  0
VERTEX
  8
0
 10
50.6204
 20
43.7031
 30
0.0
 40
1
 41
1
  0
VERTEX
  8
0
 10
50.7832
 20
44.2892
 30
0.0
 40
1
 41
1
  0
VERTEX
  8
0
 10
50.974
 20
44.8661
 30
0.0
 40
1
 41
1
  0
VERTEX
  8
0
 10
51.1926
 20
45.4328
 30
0.0
 40
1
 41
1
  0
VERTEX
  8
0
 10
51.4388
 20
45.9879
 30
0.0
 40
1
 41
1
  0
VERTEX
  8
0
 10
51.7117
 20
46.5308
 30
0.0
 40
1
 41
1
  0
VERTEX
  8
0
 10
52.0111
 20
47.0604
 30
0.0
 40
1
 41
1
  0
VERTEX
  8
0
 10
52.3367
 20
47.5756
 30
0.0
 40
1
 41
1
  0
VERTEX
  8
0
 10
52.6879
 20
48.0753
 30
0.0
 40
1
 41
1
  0
VERTEX
  8
0
 10
53.0644
 20
48.5586
 30
0.0
 40
1
 41
1
  0
VERTEX
  8
0
 10
53.4658
 20
49.0244
 30
0.0
 40
1
 41
1
  0
VERTEX
  8
0
 10
53.7824
 20
49.3626
 30
0.0
 40
1
 41
1
  0
VERTEX
  8
0
 10
53.8915
 20
49.4717
 30
0.0
 40
1
 41
1
  0
VERTEX
  8
0
 10
54.0006
 20
49.5808
 30
0.0
 40
1
 41
1
  0
VERTEX
  8
0
 10
54.3387
 20
49.8975
 30
0.0
 40
1
 41
1
  0
VERTEX
  8
0
 10
54.8047
 20
50.2989
 30
0.0
 40
1
 41
1
  0
VERTEX
  8
0
 10
55.2879
 20
50.6753
 30
0.0
 40
1
 41
1
  0
VERTEX
  8
0
 10
55.7876
 20
51.0265
 30
0.0
 40
1
 41
1
  0
VERTEX
  8
0
 10
56.3028
 20
51.3521
 30
0.0
 40
1
 41
1
  0
VERTEX
  8
0
 10
56.8324
 20
51.6515
 30
0.0
 40
1
 41
1
  0
VERTEX
  8
0
 10
57.3753
 20
51.9246
 30
0.0
 40
1
 41
1
  0
VERTEX
  8
0
 10
57.9306
 20
52.1706
 30
0.0
 40
1
 41
1
  0
VERTEX
  8
0
 10
58.4971
 20
52.3893
 30
0.0
 40
1
 41
1
  0
VERTEX
  8
0
 10
59.074
 20
52.5801
 30
0.0
 40
1
 41
1
  0
VERTEX
  8
0
 10
59.6603
 20
52.7428
 30
0.0
 40
1
 41
1
  0
VERTEX
  8
0
 10
60.2547
 20
52.8768
 30
0.0
 40
1
 41
1
  0
VERTEX
  8
0
 10
60.8564
 20
52.9819
 30
0.0
 40
1
 41
1
  0
VERTEX
  8
0
 10
61.4644
 20
53.0574
 30
0.0
 40
1
 41
1
  0
VERTEX
  8
0
 10
62.0776
 20
53.1029
 30
0.0
 40
1
 41
1
  0
VERTEX
  8
0
 10
62.5407
 20
53.1183
 30
0.0
 40
1
 41
1
  0
VERTEX
  8
0
 10
62.695
 20
53.1183
 30
0.0
 40
1
 41
1
  0
VERTEX
  8
0
 10
62.8493
 20
53.1183
 30
0.0
 40
1
 41
1
  0
VERTEX
  8
0
 10
63.3124
 20
53.1029
 30
0.0
 40
1
 41
1
  0
VERTEX
  8
0
 10
63.9254
 20
53.0574
 30
0.0
 40
1
 41
1
  0
VERTEX
  8
0
 10
64.5335
 20
52.9819
 30
0.0
 40
1
 41
1
  0
VERTEX
  8
0
 10
65.1351
 20
52.8768
 30
0.0
 40
1
 41
1
  0
VERTEX
  8
0
 10
65.7297
 20
52.7428
 30
0.0
 40
1
 41
1
  0
VERTEX
  8
0
 10
66.3158
 20
52.5801
 30
0.0
 40
1
 41
1
  0
VERTEX
  8
0
 10
66.8928
 20
52.3893
 30
0.0
 40
1
 41
1
  0
VERTEX
  8
0
 10
67.4593
 20
52.1706
 30
0.0
 40
1
 41
1
  0
VERTEX
  8
0
 10
68.0146
 20
51.9246
 30
0.0
 40
1
 41
1
  0
VERTEX
  8
0
 10
68.5575
 20
51.6515
 30
0.0
 40
1
 41
1
  0
VERTEX
  8
0
 10
69.0871
 20
51.3521
 30
0.0
 40
1
 41
1
  0
VERTEX
  8
0
 10
69.6022
 20
51.0265
 30
0.0
 40
1
 41
1
  0
VERTEX
  8
0
 10
70.1019
 20
50.6753
 30
0.0
 40
1
 41
1
  0
VERTEX
  8
0
 10
70.5853
 20
50.2989
 30
0.0
 40
1
 41
1
  0
VERTEX
  8
0
 10
71.0511
 20
49.8975
 30
0.0
 40
1
 41
1
  0
VERTEX
  8
0
 10
71.3893
 20
49.5808
 30
0.0
 40
1
 41
1
  0
VERTEX
  8
0
 10
71.4985
 20
49.4717
 30
0.0
 40
1
 41
1
  0
VERTEX
  8
0
 10
71.6076
 20
49.3626
 30
0.0
 40
1
 41
1
  0
VERTEX
  8
0
 10
71.9242
 20
49.0244
 30
0.0
 40
1
 41
1
  0
VERTEX
  8
0
 10
72.3254
 20
48.5586
 30
0.0
 40
1
 41
1
  0
VERTEX
  8
0
 10
72.7019
 20
48.0753
 30
0.0
 40
1
 41
1
  0
VERTEX
  8
0
 10
73.0532
 20
47.5756
 30
0.0
 40
1
 41
1
  0
VERTEX
  8
0
 10
73.3788
 20
47.0604
 30
0.0
 40
1
 41
1
  0
VERTEX
  8
0
 10
73.6783
 20
46.5308
 30
0.0
 40
1
 41
1
  0
VERTEX
  8
0
 10
73.9513
 20
45.9879
 30
0.0
 40
1
 41
1
  0
VERTEX
  8
0
 10
74.1972
 20
45.4328
 30
0.0
 40
1
 41
1
  0
VERTEX
  8
0
 10
74.416
 20
44.8661
 30
0.0
 40
1
 41
1
  0
VERTEX
  8
0
 10
74.6068
 20
44.2892
 30
0.0
 40
1
 41
1
  0
VERTEX
  8
0
 10
74.7694
 20
43.7031
 30
0.0
 40
1
 41
1
  0
VERTEX
  8
0
 10
74.9035
 20
43.1085
 30
0.0
 40
1
 41
1
  0
VERTEX
  8
0
 10
75.0085
 20
42.5068
 30
0.0
 40
1
 41
1
  0
VERTEX
  8
0
 10
75.084
 20
41.8987
 30
0.0
 40
1
 41
1
  0
VERTEX
  8
0
 10
75.1296
 20
41.2857
 30
0.0
 40
1
 41
1
  0
VERTEX
  8
0
 10
75.145
 20
40.8226
 30
0.0
 40
1
 41
1
  0
VERTEX
  8
0
 10
75.145
 20
40.6683
 30
0.0
 40
1
 41
1
  0
SEQEND
 8
0
  0
POLYLINE
  8
0
 62
     0
 66
     1
 10
0
 20
0
 30
0.0
 70
     1
 40
72
 41
72
  0
VERTEX
  8
0
 10
276.319
 20
239.389
 30
0.0
 40
1
 41
1
  0
VERTEX
  8
0
 10
266.219
 20
239.389
 30
0.0
 40
1
 41
1
  0
VERTEX
  8
0
 10
266.219
 20
244.389
 30
0.0
 40
1
 41
1
  0
VERTEX
  8
0
 10
261.319
 20
244.389
 30
0.0
 40
1
 41
1
  0
VERTEX
  8
0
 10
261.319
 20
239.389
 30
0.0
 40
1
 41
1
  0
VERTEX
  8
0
 10
16.22
 20
239.389
 30
0.0
 40
1
 41
1
  0
VERTEX
  8
0
 10
16.22
 20
244.389
 30
0.0
 40
1
 41
1
  0
VERTEX
  8
0
 10
11.32
 20
244.389
 30
0.0
 40
1
 41
1
  0
VERTEX
  8
0
 10
11.32
 20
239.389
 30
0.0
 40
1
 41
1
  0
VERTEX
  8
0
 10
1.22
 20
239.389
 30
0.0
 40
1
 41
1
  0
VERTEX
  8
0
 10
1.22
 20
249.489
 30
0.0
 40
1
 41
1
  0
VERTEX
  8
0
 10
6.22
 20
249.489
 30
0.0
 40
1
 41
1
  0
VERTEX
  8
0
 10
6.22
 20
254.389
 30
0.0
 40
1
 41
1
  0
VERTEX
  8
0
 10
1.22
 20
254.389
 30
0.0
 40
1
 41
1
  0
VERTEX
  8
0
 10
1.22
 20
310.489
 30
0.0
 40
1
 41
1
  0
VERTEX
  8
0
 10
6.22
 20
310.489
 30
0.0
 40
1
 41
1
  0
VERTEX
  8
0
 10
6.22
 20
315.389
 30
0.0
 40
1
 41
1
  0
VERTEX
  8
0
 10
1.22
 20
315.389
 30
0.0
 40
1
 41
1
  0
VERTEX
  8
0
 10
1.22
 20
325.489
 30
0.0
 40
1
 41
1
  0
VERTEX
  8
0
 10
11.32
 20
325.489
 30
0.0
 40
1
 41
1
  0
VERTEX
  8
0
 10
11.32
 20
320.489
 30
0.0
 40
1
 41
1
  0
VERTEX
  8
0
 10
16.22
 20
320.489
 30
0.0
 40
1
 41
1
  0
VERTEX
  8
0
 10
16.22
 20
325.489
 30
0.0
 40
1
 41
1
  0
VERTEX
  8
0
 10
261.319
 20
325.489
 30
0.0
 40
1
 41
1
  0
VERTEX
  8
0
 10
261.319
 20
320.489
 30
0.0
 40
1
 41
1
  0
VERTEX
  8
0
 10
266.219
 20
320.489
 30
0.0
 40
1
 41
1
  0
VERTEX
  8
0
 10
266.219
 20
325.489
 30
0.0
 40
1
 41
1
  0
VERTEX
  8
0
 10
276.319
 20
325.489
 30
0.0
 40
1
 41
1
  0
VERTEX
  8
0
 10
276.319
 20
315.389
 30
0.0
 40
1
 41
1
  0
VERTEX
  8
0
 10
271.319
 20
315.389
 30
0.0
 40
1
 41
1
  0
VERTEX
  8
0
 10
271.319
 20
310.489
 30
0.0
 40
1
 41
1
  0
VERTEX
  8
0
 10
276.319
 20
310.489
 30
0.0
 40
1
 41
1
  0
VERTEX
  8
0
 10
276.319
 20
254.389
 30
0.0
 40
1
 41
1
  0
VERTEX
  8
0
 10
271.319
 20
254.389
 30
0.0
 40
1
 41
1
  0
VERTEX
  8
0
 10
271.319
 20
249.489
 30
0.0
 40
1
 41
1
  0
VERTEX
  8
0
 10
276.319
 20
249.489
 30
0.0
 40
1
 41
1
  0
VERTEX
  8
0
 10
276.319
 20
239.389
 30
0.0
 40
1
 41
1
  0
SEQEND
 8
0
  0
POLYLINE
  8
0
 62
     0
 66
     1
 10
0
 20
0
 30
0.0
 40
72
 41
72
  0
VERTEX
  8
0
 10
361.517
 20
252.308
 30
0.0
 40
1
 41
1
  0
VERTEX
  8
0
 10
361.517
 20
326.208
 30
0.0
 40
1
 41
1
  0
VERTEX
  8
0
 10
305.315
 20
326.208
 30
0.0
 40
1
 41
1
  0
VERTEX
  8
0
 10
305.315
 20
323.208
 30
0.0
 40
1
 41
1
  0
VERTEX
  8
0
 10
277.015
 20
323.208
 30
0.0
 40
1
 41
1
  0
VERTEX
  8
0
 10
277.015
 20
255.308
 30
0.0
 40
1
 41
1
  0
VERTEX
  8
0
 10
305.315
 20
255.308
 30
0.0
 40
1
 41
1
  0
VERTEX
  8
0
 10
305.315
 20
252.308
 30
0.0
 40
1
 41
1
  0
VERTEX
  8
0
 10
362.982
 20
252.308
 30
0.0
 40
1
 41
1
  0
VERTEX
  8
0
 10
362.982
 20
178.408
 30
0.0
 40
1
 41
1
  0
VERTEX
  8
0
 10
306.779
 20
178.408
 30
0.0
 40
1
 41
1
  0
VERTEX
  8
0
 10
306.779
 20
181.408
 30
0.0
 40
1
 41
1
  0
VERTEX
  8
0
 10
278.481
 20
181.408
 30
0.0
 40
1
 41
1
  0
VERTEX
  8
0
 10
278.481
 20
249.308
 30
0.0
 40
1
 41
1
  0
VERTEX
  8
0
 10
306.779
 20
249.308
 30
0.0
 40
1
 41
1
  0
VERTEX
  8
0
 10
306.779
 20
252.308
 30
0.0
 40
1
 41
1
  0
SEQEND
 8
0
  0
POLYLINE
  8
0
 62
     0
 66
     1
 10
0
 20
0
 30
0.0
 40
72
 41
72
  0
VERTEX
  8
0
 10
270.6
 20
155.71
 30
0.0
 40
1
 41
1
  0
VERTEX
  8
0
 10
270.6
 20
220.71
 30
0.0
 40
1
 41
1
  0
VERTEX
  8
0
 10
275.6
 20
220.71
 30
0.0
 40
1
 41
1
  0
VERTEX
  8
0
 10
275.6
 20
225.81
 30
0.0
 40
1
 41
1
  0
VERTEX
  8
0
 10
270.6
 20
225.81
 30
0.0
 40
1
 41
1
  0
VERTEX
  8
0
 10
270.6
 20
230.81
 30
0.0
 40
1
 41
1
  0
VERTEX
  8
0
 10
265.6
 20
230.81
 30
0.0
 40
1
 41
1
  0
VERTEX
  8
0
 10
265.6
 20
235.81
 30
0.0
 40
1
 41
1
  0
VERTEX
  8
0
 10
260.5
 20
235.81
 30
0.0
 40
1
 41
1
  0
VERTEX
  8
0
 10
260.5
 20
230.81
 30
0.0
 40
1
 41
1
  0
VERTEX
  8
0
 10
15.6
 20
230.81
 30
0.0
 40
1
 41
1
  0
VERTEX
  8
0
 10
15.6
 20
235.81
 30
0.0
 40
1
 41
1
  0
VERTEX
  8
0
 10
10.5
 20
235.81
 30
0.0
 40
1
 41
1
  0
VERTEX
  8
0
 10
10.5
 20
230.81
 30
0.0
 40
1
 41
1
  0
VERTEX
  8
0
 10
5.5
 20
230.81
 30
0.0
 40
1
 41
1
  0
VERTEX
  8
0
 10
5.5
 20
225.81
 30
0.0
 40
1
 41
1
  0
VERTEX
  8
0
 10
0.5
 20
225.81
 30
0.0
 40
1
 41
1
  0
VERTEX
  8
0
 10
0.5
 20
220.71
 30
0.0
 40
1
 41
1
  0
VERTEX
  8
0
 10
5.5
 20
220.71
 30
0.0
 40
1
 41
1
  0
VERTEX
  8
0
 10
5.5
 20
155.71
 30
0.0
 40
1
 41
1
  0
VERTEX
  8
0
 10
273.481
 20
155.71
 30
0.0
 40
1
 41
1
  0
SEQEND
 8
0
  0
POLYLINE
  8
0
 62
     0
 66
     1
 10
0
 20
0
 30
0.0
 40
72
 41
72
  0
VERTEX
  8
0
 10
8.37999
 20
155.71
 30
0.0
 40
1
 41
1
  0
VERTEX
  8
0
 10
8.37999
 20
90.7099
 30
0.0
 40
1
 41
1
  0
VERTEX
  8
0
 10
3.37999
 20
90.7099
 30
0.0
 40
1
 41
1
  0
VERTEX
  8
0
 10
3.37999
 20
85.6099
 30
0.0
 40
1
 41
1
  0
VERTEX
  8
0
 10
8.37999
 20
85.6099
 30
0.0
 40
1
 41
1
  0
VERTEX
  8
0
 10
8.37999
 20
80.6099
 30
0.0
 40
1
 41
1
  0
VERTEX
  8
0
 10
13.38
 20
80.6099
 30
0.0
 40
1
 41
1
  0
VERTEX
  8
0
 10
13.38
 20
75.6099
 30
0.0
 40
1
 41
1
  0
VERTEX
  8
0
 10
18.48
 20
75.6099
 30
0.0
 40
1
 41
1
  0
VERTEX
  8
0
 10
18.48
 20
80.6099
 30
0.0
 40
1
 41
1
  0
VERTEX
  8
0
 10
263.381
 20
80.6099
 30
0.0
 40
1
 41
1
  0
VERTEX
  8
0
 10
263.381
 20
75.6099
 30
0.0
 40
1
 41
1
  0
VERTEX
  8
0
 10
268.481
 20
75.6099
 30
0.0
 40
1
 41
1
  0
VERTEX
  8
0
 10
268.481
 20
80.6099
 30
0.0
 40
1
 41
1
  0
VERTEX
  8
0
 10
273.481
 20
80.6099
 30
0.0
 40
1
 41
1
  0
VERTEX
  8
0
 10
273.481
 20
85.6099
 30
0.0
 40
1
 41
1
  0
VERTEX
  8
0
 10
278.481
 20
85.6099
 30
0.0
 40
1
 41
1
  0
VERTEX
  8
0
 10
278.481
 20
90.7099
 30
0.0
 40
1
 41
1
  0
VERTEX
  8
0
 10
273.481
 20
90.7099
 30
0.0
 40
1
 41
1
  0
VERTEX
  8
0
 10
273.481
 20
155.81
 30
0.0
 40
1
 41
1
  0
VERTEX
  8
0
 10
278.481
 20
155.81
 30
0.0
 40
1
 41
1
  0
VERTEX
  8
0
 10
278.481
 20
160.71
 30
0.0
 40
1
 41
1
  0
VERTEX
  8
0
 10
273.481
 20
160.71
 30
0.0
 40
1
 41
1
  0
VERTEX
  8
0
 10
273.481
 20
165.81
 30
0.0
 40
1
 41
1
  0
VERTEX
  8
0
 10
283.481
 20
165.81
 30
0.0
 40
1
 41
1
  0
VERTEX
  8
0
 10
283.481
 20
170.81
 30
0.0
 40
1
 41
1
  0
VERTEX
  8
0
 10
288.581
 20
170.81
 30
0.0
 40
1
 41
1
  0
VERTEX
  8
0
 10
288.581
 20
165.81
 30
0.0
 40
1
 41
1
  0
VERTEX
  8
0
 10
344.481
 20
165.81
 30
0.0
 40
1
 41
1
  0
VERTEX
  8
0
 10
344.481
 20
170.81
 30
0.0
 40
1
 41
1
  0
VERTEX
  8
0
 10
349.581
 20
170.81
 30
0.0
 40
1
 41
1
  0
VERTEX
  8
0
 10
349.581
 20
165.81
 30
0.0
 40
1
 41
1
  0
VERTEX
  8
0
 10
359.581
 20
165.81
 30
0.0
 40
1
 41
1
  0
VERTEX
  8
0
 10
359.581
 20
160.71
 30
0.0
 40
1
 41
1
  0
VERTEX
  8
0
 10
354.581
 20
160.71
 30
0.0
 40
1
 41
1
  0
VERTEX
  8
0
 10
354.581
 20
155.81
 30
0.0
 40
1
 41
1
  0
VERTEX
  8
0
 10
359.581
 20
155.81
 30
0.0
 40
1
 41
1
  0
VERTEX
  8
0
 10
359.581
 20
90.7099
 30
0.0
 40
1
 41
1
  0
VERTEX
  8
0
 10
273.481
 20
90.7099
 30
0.0
 40
1
 41
1
  0
SEQEND
 8
0
  0
POLYLINE
  8
0
 62
     0
 66
     1
 10
0
 20
0
 30
0.0
 40
72
 41
72
  0
VERTEX
  8
0
 10
334.682
 20
90.7099
 30
0.0
 40
1
 41
1
  0
VERTEX
  8
0
 10
334.682
 20
87.7099
 30
0.0
 40
1
 41
1
  0
VERTEX
  8
0
 10
362.982
 20
87.7099
 30
0.0
 40
1
 41
1
  0
VERTEX
  8
0
 10
362.982
 20
19.8097
 30
0.0
 40
1
 41
1
  0
VERTEX
  8
0
 10
334.682
 20
19.8097
 30
0.0
 40
1
 41
1
  0
VERTEX
  8
0
 10
334.682
 20
16.8097
 30
0.0
 40
1
 41
1
  0
VERTEX
  8
0
 10
278.481
 20
16.8097
 30
0.0
 40
1
 41
1
  0
VERTEX
  8
0
 10
278.481
 20
90.7099
 30
0.0
 40
1
 41
1
  0
SEQEND
 8
0
  0
POLYLINE
  8
0
 62
     0
 66
     1
 10
0
 20
0
 30
0.0
 40
72
 41
72
  0
VERTEX
  8
0
 10
105.745
 20
65.6099
 30
0.0
 40
1
 41
1
  0
VERTEX
  8
0
 10
100.745
 20
65.6099
 30
0.0
 40
1
 41
1
  0
VERTEX
  8
0
 10
100.745
 20
70.5099
 30
0.0
 40
1
 41
1
  0
VERTEX
  8
0
 10
105.745
 20
70.5099
 30
0.0
 40
1
 41
1
  0
VERTEX
  8
0
 10
105.745
 20
75.6099
 30
0.0
 40
1
 41
1
  0
VERTEX
  8
0
 10
95.745
 20
75.6099
 30
0.0
 40
1
 41
1
  0
VERTEX
  8
0
 10
95.745
 20
80.6099
 30
0.0
 40
1
 41
1
  0
VERTEX
  8
0
 10
90.645
 20
80.6099
 30
0.0
 40
1
 41
1
  0
VERTEX
  8
0
 10
90.645
 20
75.6099
 30
0.0
 40
1
 41
1
  0
VERTEX
  8
0
 10
34.745
 20
75.6099
 30
0.0
 40
1
 41
1
  0
VERTEX
  8
0
 10
34.745
 20
80.6099
 30
0.0
 40
1
 41
1
  0
VERTEX
  8
0
 10
29.645
 20
80.6099
 30
0.0
 40
1
 41
1
  0
VERTEX
  8
0
 10
29.645
 20
75.6099
 30
0.0
 40
1
 41
1
  0
VERTEX
  8
0
 10
19.645
 20
75.6099
 30
0.0
 40
1
 41
1
  0
VERTEX
  8
0
 10
19.645
 20
70.5099
 30
0.0
 40
1
 41
1
  0
VERTEX
  8
0
 10
24.645
 20
70.5099
 30
0.0
 40
1
 41
1
  0
VERTEX
  8
0
 10
24.645
 20
65.6099
 30
0.0
 40
1
 41
1
  0
VERTEX
  8
0
 10
19.645
 20
65.6099
 30
0.0
 40
1
 41
1
  0
VERTEX
  8
0
 10
19.645
 20
0.509819
 30
0.0
 40
1
 41
1
  0
VERTEX
  8
0
 10
105.745
 20
0.509819
 30
0.0
 40
1
 41
1
  0
VERTEX
  8
0
 10
105.745
 20
80.6099
 30
0.0
 40
1
 41
1
  0
SEQEND
 8
0
  0
POLYLINE
  8
0
 62
     0
 66
     1
 10
0
 20
0
 30
0.0
 40
72
 41
72
  0
VERTEX
  8
0
 10
161.947
 20
80.6099
 30
0.0
 40
1
 41
1
  0
VERTEX
  8
0
 10
161.947
 20
77.6099
 30
0.0
 40
1
 41
1
  0
VERTEX
  8
0
 10
190.247
 20
77.6099
 30
0.0
 40
1
 41
1
  0
VERTEX
  8
0
 10
190.247
 20
1.3539
 30
0.0
 40
1
 41
1
  0
SEQEND
 8
0
  0
POLYLINE
  8
0
 62
     0
 66
     1
 10
0
 20
0
 30
0.0
 40
72
 41
72
  0
VERTEX
  8
0
 10
105.745
 20
6.70979
 30
0.0
 40
1
 41
1
  0
VERTEX
  8
0
 10
161.947
 20
6.70979
 30
0.0
 40
1
 41
1
  0
VERTEX
  8
0
 10
161.947
 20
9.70979
 30
0.0
 40
1
 41
1
  0
VERTEX
  8
0
 10
190.247
 20
9.70979
 30
0.0
 40
1
 41
1
  0
SEQEND
 8
0
  0
POLYLINE
  8
0
 62
     0
 66
     1
 10
0
 20
0
 30
0.0
 40
72
 41
72
  0
VERTEX
  8
0
 10
190.247
 20
75.2539
 30
0.0
 40
1
 41
1
  0
VERTEX
  8
0
 10
246.45
 20
75.2539
 30
0.0
 40
1
 41
1
  0
VERTEX
  8
0
 10
246.45
 20
72.2539
 30
0.0
 40
1
 41
1
  0
VERTEX
  8
0
 10
274.749
 20
72.2539
 30
0.0
 40
1
 41
1
  0
VERTEX
  8
0
 10
274.749
 20
4.35389
 30
0.0
 40
1
 41
1
  0
VERTEX
  8
0
 10
246.45
 20
4.35389
 30
0.0
 40
1
 41
1
  0
VERTEX
  8
0
 10
246.45
 20
1.3539
 30
0.0
 40
1
 41
1
  0
VERTEX
  8
0
 10
190.247
 20
1.3539
 30
0.0
 40
1
 41
1
  0
SEQEND
 8
0
  0
ENDSEC
  0
EOF
